/* XPM */
static char *f1bef44a702e4b1eecc665e8ca750eb9V0X6WoaRDsUQpA8F[] = {
/* columns rows colors chars-per-pixel */
"64 64 256 2 ",
"   c #0C0B05",
".  c #0D0C0C",
"X  c #070708",
"o  c #110E0C",
"O  c #140C07",
"+  c #0D120C",
"@  c #0C1407",
"#  c #13120E",
"$  c #1B130C",
"%  c #19170B",
"&  c #0D0C12",
"*  c #080911",
"=  c #130E13",
"-  c #180D16",
";  c #0D1218",
":  c #141312",
">  c #1A1614",
",  c #1C1915",
"<  c #1D1C1A",
"1  c #171718",
"2  c #25180B",
"3  c #231C15",
"4  c #2A1D14",
"5  c #231D1A",
"6  c #2B1E1B",
"7  c #231614",
"8  c #351E17",
"9  c #321A0E",
"0  c #1E2113",
"q  c #25220E",
"w  c #242215",
"e  c #2B2315",
"r  c #25221B",
"t  c #2C231A",
"y  c #2E2B1C",
"u  c #2B2915",
"i  c #342415",
"p  c #3B2B13",
"a  c #33251B",
"s  c #3B251B",
"d  c #352A1B",
"f  c #3B2B1B",
"g  c #372815",
"h  c #3D321C",
"j  c #393419",
"k  c #322D14",
"l  c #1D1E21",
"z  c #231A22",
"x  c #361D21",
"c  c #2A2623",
"v  c #342B22",
"b  c #3B2C22",
"n  c #362724",
"m  c #3A3526",
"M  c #3D3230",
"N  c #1D2120",
"B  c #422B15",
"V  c #422D1B",
"C  c #492A17",
"Z  c #44321C",
"A  c #4C351C",
"S  c #4D3B1E",
"D  c #473618",
"F  c #51361C",
"G  c #533B1D",
"H  c #593719",
"J  c #542B16",
"K  c #673918",
"L  c #693415",
"P  c #452C22",
"I  c #433423",
"U  c #4B3423",
"Y  c #433C24",
"T  c #4C3A23",
"R  c #443B29",
"E  c #4B3C2B",
"W  c #413528",
"Q  c #533C21",
"!  c #563923",
"~  c #483C35",
"^  c #543226",
"/  c #622C23",
"(  c #653A24",
")  c #703E23",
"_  c #451B1C",
"`  c #5A421F",
"'  c #574219",
"]  c #46421C",
"[  c #74471C",
"{  c #6B471D",
"}  c #494628",
"|  c #554222",
" . c #5B4322",
".. c #564929",
"X. c #58532A",
"o. c #4B4433",
"O. c #564835",
"+. c #5C5537",
"@. c #4F5030",
"#. c #674827",
"$. c #774825",
"%. c #68562B",
"&. c #755729",
"*. c #664A34",
"=. c #784D32",
"-. c #675739",
";. c #765834",
":. c #77612D",
">. c #68623D",
",. c #7A6739",
"<. c #6B6830",
"1. c #5B5744",
"2. c #5B4C40",
"3. c #685B43",
"4. c #745D45",
"5. c #6B6447",
"6. c #746344",
"7. c #796848",
"8. c #7A7248",
"9. c #796C54",
"0. c #7A7155",
"q. c #86491D",
"w. c #94571D",
"e. c #8D5317",
"r. c #854C24",
"t. c #895529",
"y. c #965A27",
"u. c #875B36",
"i. c #955E36",
"p. c #844E34",
"a. c #A35C34",
"s. c #9A6329",
"d. c #876838",
"f. c #9D6533",
"g. c #976737",
"h. c #95783A",
"j. c #8A7432",
"k. c #A56728",
"l. c #AA712B",
"z. c #AA6C34",
"x. c #A56A37",
"c. c #AC733B",
"v. c #A97736",
"b. c #B5793A",
"n. c #B97F2B",
"m. c #9B601E",
"M. c #896946",
"N. c #986845",
"B. c #897649",
"V. c #977849",
"C. c #886E53",
"Z. c #847454",
"A. c #8B7B5C",
"S. c #877755",
"D. c #957B54",
"F. c #9D6B50",
"G. c #A46B44",
"H. c #AB7B4C",
"J. c #A87645",
"K. c #B67C45",
"L. c #A67955",
"P. c #B67956",
"I. c #AB6251",
"U. c #8B7D64",
"Y. c #967E61",
"T. c #C47D55",
"R. c #C47F60",
"E. c #9D8337",
"W. c #A8883A",
"Q. c #BD843D",
"!. c #C1873E",
"~. c #988347",
"^. c #898358",
"/. c #97845B",
"(. c #8A8B4F",
"). c #A68748",
"_. c #BA8548",
"`. c #A98756",
"'. c #B88758",
"]. c #B69458",
"[. c #AE9651",
"{. c #BEA657",
"}. c #8C8166",
"|. c #938263",
" X c #9C8B65",
".X c #9B8C6B",
"XX c #968768",
"oX c #9C9569",
"OX c #998E73",
"+X c #A48C68",
"@X c #A3926D",
"#X c #A9966B",
"$X c #B99767",
"%X c #A49574",
"&X c #AB9B75",
"*X c #AC9C7B",
"=X c #A79877",
"-X c #B29E7B",
";X c #B69C74",
":X c #B28D68",
">X c #AEA17A",
",X c #B3A37C",
"<X c #BAA57D",
"1X c #BCAB7E",
"2X c #B6A577",
"3X c #A9A66B",
"4X c #9FA172",
"5X c #C3894A",
"6X c #CA964A",
"7X c #C68859",
"8X c #C79458",
"9X c #D79A57",
"0X c #CDA957",
"qX c #C58866",
"wX c #C89867",
"eX c #D49A6A",
"rX c #D0926C",
"tX c #C9A36A",
"yX c #D6A56A",
"uX c #C8A776",
"iX c #D6AB76",
"pX c #D8B47C",
"aX c #C9B37A",
"sX c #E3B37B",
"dX c #E0AD7E",
"fX c #AE9D81",
"gX c #AEA382",
"hX c #B4A584",
"jX c #BAA683",
"kX c #B5A983",
"lX c #BBAA85",
"zX c #BCAB8A",
"xX c #B7A68A",
"cX c #BEB18A",
"vX c #BFB392",
"bX c #C2AE85",
"nX c #C3AE8B",
"mX c #C4B38D",
"MX c #C9B58C",
"NX c #C7B78A",
"BX c #DAB684",
"VX c #C5B493",
"CX c #CBBA95",
"ZX c #CAB896",
"AX c #D3BC95",
"SX c #C8AE91",
"DX c #E3B886",
"FX c #CFBAA5",
"GX c #D3C29C",
"HX c #D6C398",
"JX c #CEC098",
"KX c #DACAA6",
"LX c #DDD5A4",
"PX c #E7D4AC",
"IX c #E7C99A",
"UX c #FEE9CC",
/* pixels */
"> : . : : : : : : : : > 1 > , < 3 3 z w t 6 t a t e c c e t 8 Z m H :.j.j.' q k d d i g s a a s a d g a d g s d i d d h h f f h ",
": # . # : : # : # # : : > 1 > , , , 5 t t a t d d e i f k k j.).:.W.[.E.W.=.e a a b d d d f f y v d d s k d f d d f f d f f k f ",
": # : : : . # : # # : > : : % > , , t 3 c e c t n s i g e S l.E.j.W.{.[.].;.c k a a a a y s s d a d a d f f m f f h d f d f f f ",
": : : : : # : # : : : : 1 > , , 5 t t a 6 s 8 i f d W U ] %.E.W.W.6X0X].).%.8 C P f d f g a d s c t a f s f f Z b b f s h h b f ",
"1 : > : : : : . = # : : > , , 5 6 e a V U #... .p } } ..-.%.#.:.S &.[.~.j.,.Q J J f g s d d a a d a a d s f Z f h f Z f f h Z f ",
": : > : : : : . # = : : 1 , 5 6 a i P ;.&.d.[.{.<.Z X.} } Y # % * } E.:.X...! H J J / U d d f g d d s f f h f Z f Z f f h Z Z Z ",
": # : : # : # # # : : , , 3 5 t f f | ).h.).[.{.`.X.X.} y q w 0 e j.B.X...E $.$.! / / ^ g i s f d f f f f Z I Z Z Z Z A Z A A Z ",
": : > : : + : . # : > , 3 5 t t g g 7.E.E.h.,.).-.j ] S 1 d `  .j -.:.%.-.Q ! ( / C 8 V s f f s g f f b V Z Z f Z Z D T T S S A ",
": : : : : + # : : # # , 3 5 t a d U ~.j.,.k y ~.&.e &.u % r D } ] %.%.} Y h a B s d s / _ a f u d s f s h Z Z Z Z A G T G G S A ",
"# # : : # # : : : : > < 5 r a a i G t.j.:.4 k ~.j.&.s.j 6 % < ..X. .X.j j m $ ^ / C ( J 9 b a s s d f f Z Z D Z A S T G G Q G F ",
": . . : : # # : : 1 > 5 5 t a s B  .{ &.S b %.%.,.j.{ # < 1 < %.X.] | m % : - s / C J C g V d f d f f I Z Z A S T G Q G Q  . .G ",
"# : # : : : : : : > , 5 r t d f f U p e >  .,.,.<.<.#.7 $ : r X.y } +.Y X X & > 3 f B s f g s p h f f Z A S S T Q G |  . . . .| ",
"o : : : : # : > > > , 5 r t g V Z V s o +.D.,.d.%.X.:.k X , 6 $ . # 0 + . O O @ y T ] A p g b d s f h Z A A G '  .` ` `  . .Q ` ",
": . : : : : : 1 > > , 5 5 t s V f Z f ..`.).;.#.' ..X.3 E L.L.=.E X X X & & X   h ..} @.T V d a f p V S S F ` `  . .` `  . .` Q ",
"# # : : : : > > , , 5 5 5 t g Z U p f V.u.V.V.Z : j 0 ~ uXrXqXL.u.-.E v : * & . q } } ] j p j V V V A T ` |  .` ` X. .#.#.`  .` ",
": # : 1 > 1 1 > , , 5 5 5 t g V V j U #.;.h.~.o.- % $ P.eX`.*.i.'.'.J.;.. + + + v v j @.} s g f B V A F G ` ` ` ` ` ` #.` `  . .",
": # > 1 > > > 1 < > r t 5 c v i g j V s ,.h.a # 7 V u.'.qXrXR.rXrXN.;.E   o   3 } j k Y T f p f V A A A G G ` `  . .{ `  . . . .",
"1 : # 1 1 > > > > 5 w 3 t c t a f g M d Z V o =   D '.R.rXrXrXrXqXJ.F.i = & : ; Z T m m h f f f Z A S F G  . . . . .X.`  . .| ' ",
": # # > , > < > , > c r 4 t a t v p B f a $ + o - 6.H.R.R.R.rXT.F.G.qXd * + $ , g h Z h f V V Z V A F G G | `  . . .#. . . . . .",
"> # # > > > > > > 1 < 3 t 4 t d u P s t ^ V.3 * ^ $XH.7XR.R.T.I.p.P.p.O : @ p P f g f f f f p Z V Z S F G ` `  . . .`  . . . . .",
"% : > > > > > > z , 3 r c z 7 7 6 8 V *.P.9XC.V.].iX'.H.qXeXqXa.N.N.C 7 > 4 e P V V V s g s f Z C D S F G G `  . . . .G  ...#.` ",
"1 : > > > > , , = > , < $ i *.4.D.]._.].H.8XDXsX9XBXDXwXK.G.J.G.=.J f f f s R I Z g f s f f Z Z Z S F F G G ` #. . . . . . . . .",
"> : 1 > > > > , m o.^ ! 6.`.5X5X9X5Xb._.G.x.iXDXiXDXBXsXtXL.*.C p R E f P i E 3.T V p s f V V Z A F F G ( ` ` ` G  . . .|  . . .",
"% 1 > > % > > , 4 u._.b.K.5XQ.!.n.z.k.v.c.w.G.iXBXpXBXBXiXwXV.#.D.S.S.0.*.E 9.8.T V V V f V Z Z A F F G G ` H ` G G Q | |  . . .",
"% 1 # > : 1 1 < < < g C.'._.6X6Xn.l.l.b.K.x.t.H.DXBXBXBXwX:X`.:XuX#X=X4XOXFXUXzXO.p V V V V C D A F G G G ` ` H H G G  .`  . .Q ",
"< N < < 3 , 3 3 4 a 4 M.yX9XyX5X_.k.K.H ,.c.s.).wXtXDXDXiXtXtXBXSXxXvXgXjXIXPXSX7.B V U B V Z S F G G ' G G G ' ` G Q | |  . . .",
"< 1 < 5 5 7 7 6 6 a 8 d.9X9X`.=.).5Xf.p.G.s.x.V.iXK.wXyXDXBXDXDXBXAXGXuXwX_.$X;X&X7.B Z S V V A F G G G G F G G G G ` ` Q  . . .",
"3 t t y b W E O.E f a u.6Xb.).;.J.].J.t.v.8XF.P.IX'.z.T.'.qXeXyXiXaXuXwXwXt.=.ZXSX#XS.D p C F ^ F F G F G F S G G G G ` Q Q  .| ",
"Z.U.|.}.|.Z.6.8.S./.}.D.c.T.6XK.b.K.a.i.b.7XL.uXPXuXg.z.y.y.z.K.5Xb.b.z.t.K jXKXZXKXVXxXC.D B G F F ! G F H G G G G G G G G | | ",
"#XbXnXVXVXzX@X6.9.S. XtX6Xk.x.P.8X8X'.;X$XuXAXPXPXbX_.c.f.f.K.e.s.y.q.L #.-XPXKXLXkXzXGXCX*.A D F F G F G G G G G F G S F S Q Q ",
"xXVXSXVXmXVXJXlXY.XX X:X5X5Xh.`.wXP.uX:X:XtXeXeXyXeX5XQ.b.f.t.[ L [ K C.NXJX,XLXNX1X>X2X,X3.C S A F F F F G G G ' G G G G Q | T ",
"*XmXxXVXCX&X,XzX,X/. XtX!.l.H.H.g.d.$.$.$.t.i.s.z.c.K.T._.x.r.$.H K %XLXNX>X8.JXJX#XoX&XXX6.V V C A F A F G G G F F F G S Q Q D ",
"*XVXVXGXmXSXhX*XVX-X).tX8Xl.c.z.z.v.k.a.y.$.L w.g.y.z.v.b.e.y.r.$.jXKXGX,X1X8.4X4X(.^.|.A.|./.-.C S Z ! F H G H S A F ! S U Q S ",
"=XVXZXCXZXzXkX=X.X2XtX$X8Xb.c.w.s.b.k.l.c.s.y.q.y.s.x.x.c.e.e.q.$.kXVXAXoX3X^.<.X.(.B.>.-.O.3.*.E s f f U ! F G H A F F S A S Z ",
"fXZXVXKX*X&XA.>X+XtXtXtX8X6Xc.k.w.y.m.l.z.b.w.q.k._._.k.x.r.t.r.p.#X*XZXoX(.,.} @.R v 5 7 O # > > 5 > $ p F F F A A A F A A A Z ",
"*XVXAXmX&XkX#X&XuXiXtXiXwX8Xz.k.k.e.w.l.5Xs.w.b.l.w.k.8X5Xy.s.t.-.A.|.-XoX(.8.5.@.m @.v o ; * X *   7 s S H D A S A D A A U A V ",
"fXZXAXzXHXbXmX&X$XiXsXpXpXuX_.b.z.k.w.m.m.w.z.b.b.e.b.9X5X9X_._.J.d.H.'.bX8...X.8.(.oXoX5.E M o.~ f U T D F Z U D A Z S T Z Z f ",
"jXZXVXVXMXNXmX#X2XiXpXpXpXBXtX).y.m.k.z.k.y.q.k.m.m.n.b.z.z.K.6Xz.q.r.P.MXC.b +.3.Z.}.hXzX8.6.A.|.#.p V F C B A V Z Z Z Z h f f ",
"xXAXcXNXMXMXNX,XlX8XHXpXpXaXiXwXH.f.z.z.s.y.x.J.y.w.z.z.K.y.k.b.b.c.].AX-.2 j +.5.U.=X,XvXU.OX1XS.-.a b V p B j V V f Z Z h f f ",
"jXCXbXHXCXmXAX&XmX[.0XpXiXBXpXiX$XK.x.z.J.P.7X'.P.f.x.x.t.q.y.x.u.=.6.} O e W O.7.%X=XzXjXA.U.kXfX+.4 a i f Z f f f V f V f v b ",
",XmXmXCX+X,XNXlXbX8XJ.$XwXiXiX2XtXpXeXeXeXyXwXqXT.G.N.u.K K $.H     . X % : r ..7..X=XmX%XU.}.%XxXXXh 8 n y p d f p f h V d d b ",
"@X+X%X0.S.|.%XbXNX8X5Xi.h.`.$X].8XiXyXeXeX8XwX7XP.G.=.K ( $.L L   X X + > $ c Y Y..XfXvXhX.XD.N.M.M.*.a n i a f s f p h f d a d ",
"|.A.C.8.+.-.-.S.MXwX6XK.y.g.N.V.`.wXwXwXeX7X7XT.P.u.#./ L [ L L 7 + O # : w M % .XGXbXMXSXC.M.G.$.t.T y i e i a a d s f g d t d ",
"-XVX`.M.5.1.3.7.*XbX_.c.b.t.u.t.&.N.N.J.J.L.L.F.d.#.K K L [ [ L p . 3 7 : e w r Z.GXZXZX:Xu.i.u.F.u.C v a d e e t t a d b c a d ",
"hXHX].`.D.9.1.9.kXAXuX].c.f.t.y.t.i.u.s.y.u.t.$.$.) $.K ) { K ) C   % i < e % > X.kXCXbXhX6.K N.d.=.N.^ c t v d 6 e y t a t a d ",
"bXMXD.`.[. X7.1.cX,XvXCX$Xx.t.y.s.s.f.x.y.s.y.t.q.r.r.L L H H J C   2 i 3 v e d /.&X>X.X XD.=.#.=.f.t.J y v d r 5 6 t t t 6 t t ",
"NX:X~.].`././.3..XJX&XvXAX:XV.u.x.i.f.f.y.x.c.s.i.i.r.=.d.M.=.H 2   $ 4 e 4 h 4.@X*X>X*XXX.XA.6.G H i.U u b r e 6 6 4 t r 6 t t ",
"1XB.B.D.~.B.D.,.6.HXJX*XVXIXAX-XV.D.V.N.V.s.y.c.J.t.u.;XBXBX:XC O   a R 2 m S %.A.Y.Z.7.7.6.-.U t I P v w 5 w 5 6 t t t 6 t t t ",
"%X-.d.V.D.-.7.,...-XPXZX*XhXKXPXxX+X,X2X/.L.`.MXZ.,.,XZX-XuXA.!  .-.9.P a ..#.Z E X.@., D #.S S ! f y <   % c 5 t t e t 5 6 t 6 ",
"#XD.D.V.B.,.:.,.7.;.MXKXZX=X|.jXZX%X^.ZX#X1XCXbXC.AXSXnX-XA.@X%X=X.X=.C C H  .E S ,.X.5 g V f A I Y m 3 > 1 0 y t 4 6 t t t 3 t ",
",XaXaXaX X4.#.%.-.,.6.GXZXVXxX@X*X,X&XJXHX,XHX X@XxX,X1X1XB.#X/.C./.u.=.J s f | ,.,.} N c a i 7 e m k k 3 & o W 4.W a 6 t 3 3 w ",
"@XlXxXXX0.oXA.d ..O.T 9.vXoX*XCXSX=X/.HXHXmXlX X8.>.5.0.>X`.`.d.! h.V.=.C x : v @.X.d l u s a e t r m v t & m S.7.%.O.W b d t t ",
",X&X XoXlX2X&Xd 2 v b h 7.XXnXjX*XXXZ.hXJXJX>X@.} m j m 1.oX3XoX-.| ;.| n v % ; O u e f i e 3 i 3   t d r # R /.6.7.7.4.S.Z.8 8 ",
"uXbX X X XB.Z.Z % < < t f =XjXjX-X X|.;XvXJXvX8.@.+.@.Y Z ,.[.8.~ N v i 5 c w g f > 2 ` P y 4 5 : ,   E Z , y d m R 4.B.~. XT 3 ",
"-X}.n 7 U.3.O - > & : > 0.xXVX>X#XhXVXmX>X^.5.+.@.1.@.} :.;.=.T ~ < > Z p t W e.J 4 t B 8 U P 5 7 > # > , O . # & X w -.O.} d v ",
"jX6.X & m v = . . : ; X U.VXxXcXvXvXhXzX=XX.Y } } } } Y S I i : 1 k %.:.j.j.{ t.^ s 4 V x 8 C i 5 , @ . + 1 : # O :   X X @ v M ",
",X9.X .   * * . X . X   }.vXOXoXOX=X%XU.0.5.@.@.X...} u c m c 1 @ c >.h.0XE.[ j.[ B f b C 8 3 5 < 6 t . . + @ - = . . + # r o.o.",
"1XOX  : o . + + . & 1 d 9.3.~ o.5.OX3.} m } } } } m m N M k *.s z i :.E.W.:.D e t 5 P g 7 n O 3 3 f *.I X ; O . . = & = O o.1.4.",
";XmXR X 1 #   . & = l r d V E ~ O.5.+.5.>.}.1.Y c u w & k $.( s 3. X^.#XA.>.+.~ m = , : * 3 i p S v e ..# * : < + + & . ~ 0.S.}.",
",X1X%X3 & ; : - O w 3 6 I O.| o.Z 5.*X*X&X8.+.o.o.} R W ;.$.H a M 0.S.%X9.@XS.+.o.> + % B T p e H k ; v +.m : k > #   v }.OXoXXX",
",X<XmXOXv . # , r t 3 W E b V O.S.&X,X*X-X*X@XXX}..X.X%X/.S.S.XXA.9.3.7.2.3.o.+.N v 0 b ;.p S y R &. .A. X/.m $ 1 O o.}..X&X&X%X",
">XzXjXlXgX0.O.m R $ > c M O.|.hXMXlXlXkXxXzXxXxXxX*XgX>X3XgXkX<X*XhX,X>X=XU.U.XX1.# 1 1 % W &.^ 0.+XS.}..X XXXo.v o.%X&X*XhXlX*X",
",XzXjXmX-X X=X}.o.3./.%XcXNXCXmX<XlXxXlXzXxXzXlX<XkXxXkXkX,X1X,X,X,X,X,X1XmXjXNX0.+ < ; m &X,.4.*XfXhX*X>XgX>X,XfXxXfXfX*X>XxX,X",
"@XhX,X,XbX*X%X%XgXVXCXNXcXxXlX2XbXlX,X<X&X<X,XkX,X<X2X1XcX1XlXzX1X2X,XhX2X,X;X2XU.+.0.+. X;X^.2X>X,X;X<X<XhX*XhX,X*XfX*XhX,X>X%X"
};
