/* XPM */
static char *_6c1c3d2da8746fec9ba03456154c571d1r7odqidDvgsUPT[] = {
/* columns rows colors chars-per-pixel */
"64 64 256 2 ",
"   c #1A1808",
".  c #1B1B15",
"X  c #0E1611",
"o  c #261B0D",
"O  c #271D15",
"+  c #321E11",
"@  c #1B2319",
"#  c #19230C",
"$  c #28230C",
"%  c #38280D",
"&  c #2B2414",
"*  c #2C231B",
"=  c #252417",
"-  c #3B2C14",
";  c #342B1B",
":  c #3B2B1B",
">  c #362616",
",  c #3A3517",
"<  c #33380D",
"1  c #1B2524",
"2  c #262924",
"3  c #342A22",
"4  c #3B3526",
"5  c #2B352E",
"6  c #171E21",
"7  c #47330E",
"8  c #432C14",
"9  c #472A18",
"0  c #443415",
"q  c #4C3313",
"w  c #42351C",
"e  c #4B3C1A",
"r  c #483919",
"t  c #533B1B",
"y  c #573918",
"u  c #4F2B14",
"i  c #66381B",
"p  c #6C2F1E",
"a  c #572823",
"s  c #443523",
"d  c #4C3C22",
"f  c #473A26",
"g  c #533C23",
"h  c #573725",
"j  c #463128",
"k  c #672A26",
"l  c #782A27",
"z  c #6A3626",
"x  c #783628",
"c  c #7A3932",
"v  c #6F3F31",
"b  c #6B1C22",
"n  c #3A4417",
"m  c #294012",
"M  c #394536",
"N  c #484619",
"B  c #57451B",
"V  c #55561D",
"C  c #524C16",
"Z  c #674718",
"A  c #724D1A",
"S  c #4A4525",
"D  c #584727",
"F  c #595625",
"G  c #464636",
"H  c #594A34",
"J  c #5A5336",
"K  c #4C552C",
"L  c #654926",
"P  c #7A472A",
"I  c #665629",
"U  c #785929",
"Y  c #7B4737",
"T  c #675736",
"R  c #755938",
"E  c #654C31",
"W  c #5D662B",
"Q  c #79632B",
"!  c #6C6738",
"~  c #766739",
"^  c #7B723A",
"/  c #656A2E",
"(  c #595645",
")  c #514C43",
"_  c #6A5B49",
"`  c #5D654D",
"'  c #696546",
"]  c #776A47",
"[  c #787746",
"{  c #787657",
"}  c #716D55",
"|  c #657261",
" . c #395354",
".. c #883929",
"X. c #963728",
"o. c #912F2F",
"O. c #AE3C33",
"+. c #902227",
"@. c #8C4D1E",
"#. c #884526",
"$. c #994626",
"%. c #874835",
"&. c #875837",
"*. c #915330",
"=. c #A74829",
"-. c #B64D28",
";. c #BB532A",
":. c #B65427",
">. c #B75635",
",. c #A95333",
"<. c #85662C",
"1. c #876937",
"2. c #966936",
"3. c #897336",
"4. c #977637",
"5. c #926E2D",
"6. c #A4693C",
"7. c #A67839",
"8. c #B5703A",
"9. c #A74D1F",
"0. c #C25628",
"q. c #935744",
"w. c #B0524C",
"e. c #886946",
"r. c #867A47",
"t. c #98784A",
"y. c #887956",
"u. c #94704E",
"i. c #A67B47",
"p. c #B97749",
"a. c #A57853",
"s. c #B26B50",
"d. c #817C63",
"f. c #B76F66",
"g. c #C9726A",
"h. c #C36E58",
"j. c #B13E41",
"k. c #7B834F",
"l. c #738568",
"z. c #B2843D",
"x. c #95823F",
"c. c #89844A",
"v. c #98844A",
"b. c #888556",
"n. c #968656",
"m. c #9D935B",
"M. c #A78546",
"N. c #B88847",
"B. c #AA8856",
"V. c #B78956",
"C. c #B9945A",
"Z. c #B19753",
"A. c #878568",
"S. c #998C67",
"D. c #9C9569",
"F. c #999576",
"G. c #8D8E75",
"H. c #A89868",
"J. c #B6996A",
"K. c #A69B75",
"L. c #AD8E68",
"P. c #B9A66A",
"I. c #ACA679",
"U. c #B7A976",
"Y. c #B6AC71",
"T. c #B9A455",
"R. c #C38D49",
"E. c #C7944B",
"W. c #C59755",
"Q. c #C18956",
"!. c #CC9966",
"~. c #C9A568",
"^. c #C6A475",
"/. c #C3B479",
"(. c #D1B16C",
"). c #C6A556",
"_. c #7F9D98",
"`. c #7C968D",
"'. c #839C9A",
"]. c #889B98",
"[. c #919682",
"{. c #88A39D",
"}. c #98AA98",
"|. c #9BB29A",
" X c #9BA98D",
".X c #A6A789",
"XX c #B7AB87",
"oX c #BAB588",
"OX c #A8AC93",
"+X c #A9B699",
"@X c #B4BC9C",
"#X c #B6B897",
"$X c #AFB08D",
"%X c #869EA2",
"&X c #8BA5A3",
"*X c #8DAAA4",
"=X c #8BA6AA",
"-X c #8DABAB",
";X c #86A2A2",
":X c #92ABA4",
">X c #92ACAB",
",X c #93A8A4",
"<X c #96B2AE",
"1X c #9AB3AC",
"2X c #99B1A4",
"3X c #9BB4B3",
"4X c #99B5B5",
"5X c #91AEB2",
"6X c #A7B9A6",
"7X c #B3BDA6",
"8X c #A3BBB3",
"9X c #A5BBB7",
"0X c #C5B887",
"qX c #C5BC94",
"wX c #C9B088",
"eX c #C3B9A2",
"rX c #B8C19B",
"tX c #ADC2AC",
"yX c #B4C4AB",
"uX c #B8C4A6",
"iX c #ABC2B4",
"pX c #ACC3B9",
"aX c #B7C9B8",
"sX c #BED2BA",
"dX c #C5C49B",
"fX c #D5CA93",
"gX c #CCCDAB",
"hX c #C7C9A6",
"jX c #D3CDA5",
"kX c #CBD2AD",
"lX c #D4D3AC",
"zX c #D9D5AA",
"xX c #C4CCB5",
"cX c #CAD4B9",
"vX c #D3D4B3",
"bX c #DBDAB5",
"nX c #DBDCBB",
"mX c #D5D7B8",
"MX c #D2CFB0",
"NX c #E2DDBA",
"BX c #E3DAAC",
"VX c #DCE2BC",
"CX c #E3E3BC",
"ZX c #F0F0BC",
"AX c #E5D393",
"SX c #B9CCC2",
"DX c #B7CCC4",
"FX c #C9D8C6",
"GX c #D7DDC4",
"HX c #DCE2C2",
"JX c #D8E3CA",
"KX c #D9E2D1",
"LX c #E3E4C3",
"PX c #E6E7C7",
"IX c #E8EBD2",
"UX c #E0DFC0",
/* pixels */
"`.`.`.`._._.'.'.].{.{.&X&X{.].{.{.{.&X{.,X,X*X&X}.{.,X,X&X}.&X{.:X>X2X&X{.,X,X,X,X,X].,X].].].{.].].].].'.].].].].].].].].'.'.'.",
"'._._._._._.{._.{.{.=X=X=X&X=X=X-X*X,X=X=X>X-X>X-X&X&X,X*X*X*X*X}.:X:X*X:X*X*X<X>X=X,X&X,X=X=X&X&X>X%X%X;X=X%X%X%X%X%X%X;X%X'.'.",
"_._._.{._.{.*X:X{.:X:X*X*X*X>X>X>X<X-X-X>X5X<X<X5X5X5X>X<X*X-X5X5X-X-X:X*X<X>X-X,X>X5X>X=X>X=X*X&X*X>X:X*X*X*X=X&X=X=X%X%X'.'.'.",
"_.;X_.{.{.*X{.{.*X{.}.:X}.}.|.|.|.2X+X|.}.:X2X:X+X+X|.|.2X2X2X>X:X-X:X*X-X-X}.2X>X>X=X%X,X>X>X>X-X*X*X*X=X-X-X=X=X=X=X%X%X%X%X_.",
"-X-X&X;X{.;X;X;X*X{.{.*X*X:X:X<X}.2X2X|.}.OX}.|.|.OX6X1X1XOX6X}.2X|.1X<X>X2X>X3X4X5X>X>X>X>X>X5X<X5X=X-X-X-X>X&X-X>X=X%X%X;X%X%X",
"*X-X>X>X*X-X>X>X-X5X>X<X>X>X-X<X4X4X<X<X4X4X4X4X9X4X4X9X3X1X6XaXaXcXFXaX8XiX8X4X4X9X9X9X9X4X4X<X5X<X8X8X1X4X<X1X5X>X>X,X*X=X=X=X",
"2X2X<X2X>X2X1X1X<X<X<X1X1X1X1X4X1X2X2X6XtXaXaXcXDX4XDX8X}.]. X}.6X6XsXcXcXJXFX9X9X9X8X8XiXaXaX8X4X6XuXyXaX9X9X3X3X>X5X=X,X=X>X,X",
"<X<X<X<X3X<X4X<X<X<X<X4X8X4X4X4X+X7X+X+X@X+XuXyXaX9X>X2XOX6X}..XOX+X7XyXtXxXGX9X6X6XOXOX@XuXxXsX8X6XuXyXtX8X8XiX9X3X4X>X>X,X,X].",
"<X2X<X1X<X1X1X<X1X4X4X8X8X9X4XiX@XuX@X+XtX@XuXrXxXuXL.XX7XgXrX#X#X#XuXrXrXrXuX6X.X+XOX X+X7XuXuXyX6XiX7XtXyXtXtXaX9X4X5X>X5X&X[.",
"6X8X8X8X8X8X8X8XpXiXiXiX8X8XiXyXuX@X+XuXuXuXuXhXgXy.#.e.n.oXqXdXrXrXdXdXdXrXrXrX$X$X$XrX#X7X7X+XrX@X7X7XuXuXuXyXyXaX9X5X4X4X,X{.",
"8XiX8X8XiX8X8XiXpXiXpXiXiX8XtXrXrX#X@X@XrXrXdXkX$Xy.S.y.L.V.^.kXhXdXdXdXdXdXjXgXdXrXkXzXgXuXhX$X7X#X+X#XyXtXyXaXyXaXFXtX3X8X X}.",
"tX8XiXiXpXiXpXpXpXpXpXpXaXaX@X#X#XuXuXhXuXhXgXlXU.a.a.eXwX!.t.n.0XdXdXdXjXzXVXnXbXVXVXbXbXkXmXcX+X#X#XuX7X7XuXaXsXsXsXiX9X9X Xd.",
"iXpXpXDXpXpXpXDXDXpXaXgXgXkX#X#XdXhXjXhXgXbXNXS.u.1.R ~ 1.t.*.#.2.XXhXkXNXbXmXlXzXCXbXbXbXmXvXoXt.0XhXhXgXcXcXFXFXFXFXDX9XpX[.F.",
"pXsXaXSXDXDXDXpXpXaXkXdXdXdXdXdXjXhXjXgXmXLXJ.A *.&.B.E.V.M.8.7.*.2.J.0XdXkXvXbXzXlXlXVXVXqXJ.P.dXzXvXcXmXnXGXmXGXGXKXKXDXaXS.9X",
"sXSXSXSXSXFXFXSXcXFXvXjXhXhXdXlXbXvXvXqXoXXXu.i.1.J.^.a.V.p.N.R.6.7.6.6.i.C.oXmXVXvXkXvXy.M.fXCXUXNXmXbXbXGXJXGXGXJXKXFXFX9Xy.9X",
"FXcXFXFXFXcXSXFXvXmXkXjXjXdXjXbXbXvXB.i.N.@.1.i.i.0XJ.i.V.R.N.7.z.R.R.z.N.i.a.L.I.qXcXD.@.fXmXnXmXvXmXNXNXGXVXGXFXGXFXDXFXFXt.OX",
"cXFXSXFXFXFXFXFXcXcXvXgXzXzXjXzXzXdXJ.fXjXJ.C.V.e.t.a.V.W.N.i.N.E.E.E.z.E.E.W.7.*.i.a.5.C.jXMXmXPXJXJXGXHXJXFXFXFXDXSXFXaXFX.Xu.",
"cXJXJXGXFXGXFXFXFXGXmXFXnXBXzXfXjXbXbXNXUXPXNXqXXXS.r.a.V.Z.C.R.R.E.E.z.R.E.R.z.8.7.2.7.wXcXhXMXnXPXJXJXKXFXJXFXFXKXFXFXFXKXA.w ",
"sXaXsXFXvXhXmXHXcXGXJXJXmXzXzXlXBXzXzXBXbXbXbXjXMXhXK.e.N.).N.z.E.E.E.R.R.E.R.8.z.7.i.7.C.hXhXzXvXnXIXKXKXFXKXFXFXFXGXFXG.( 3 O ",
"l.` J ` k.l. XtXkXxXFXGXnXvXbXlXjXzXzXNXCXBXzXjXjXzXjXU.n.t.V.!.E.p.W.E.W.!.V.i.7.8.z.W.C.oXhXfXhXgXmXGXGXKXGXFXFXFXhX( o + O O ",
"A.k.k.[ { l.k.l.[.hXkXnXLXLXmXmXzXjXzXbXzXlXvXMXY.U.hXMXqXL.B.B.W.~.~.W.(.~.~.B.2.2.7.W.B.P.qXqXdXgXMXMXmXnXJXGXGXGX(   : 8 > > ",
"l.l.l.[ [ [ [ c.k.K.jXbXNXBXGXbXNXbXzXNXNXlXhXU.Z.Z.0XMXhXjXqXXXJ.U.J.^.^.!.C.~.~.t.q.i.N.0XbXbXnXNXNXLXPXHXLXLXFXCX_ & r 9 9 % ",
"M S N I r.[ ! [ } { K.hXqX0XzXfXwXoXNXLXzXjXqXB./.P.U.gXMXgXkXvXhXhXhXhXeX#XXXL.N.a.1.L.a.B.MXUXLXPXIXPXPXPXPXLXPXXXD - 7 7 8 u ",
"% 0 r , J k.] { F H ' ' ] r.! ^ ~ G l.| | | S.m.7.7.P.lXqXlXGXlXmXvXbXMXgXFXxX7X#Xm.t.bXNXB.wXbXbXPXCXPXPXLXIXPXA.% 7 B y y y y ",
", N C N N ! T ' ! ' J S n C C F W ! ! [ { | ` | ! c./.zX/.fXmXvXGXnXnXGXnXMXbXmXmXXXqXNXNXmXNXNXnXGXUXLXGXLXqXT - B C Z Z A Z Z ",
"$ 7 r , , , N N < D J , N C V F Q r.c.c.c.3.b.c.k.| b.bXCXzXzXcXnXMXgXGXHXnXmXGXcXMXMXbXnXGXGXPXUXGXGXUXUXNX! & q t B Z Z A A Z ",
"o $ $ < 0 N C e 0 < V , , n V / ^ c.r.c.c.c.v.c.c.c.' $XCXCXVXVXcXcXvXcXcXvXmXMXVXCXVXzXNXnXNXNXNXLXKXLXPXmXD 0 r q Z Z Z Z Z Z ",
"Z - o o > % r N N C V V F V W / ^ k.^ c.c.c.c.b.c.c.' oXCXJXVXLXGXGXmXcXxXcXxXgXkXmXlXvXNXNXUXUXLXKXGXGXIXF.% y q t y Z Z Z Z Z ",
"B y 7 % % B ~ ^ ~ ! ^ ^ k.k.^ [ ^ [ ^ [ c.c.b.c.c.^ y.BXCXHXCXVXVXVXzXVXmXcXgXMXvXkXvXVXPXLXLXJXUXGXGXIXGXs 0 q % u 7 y C Z C i ",
"7 7 7 7 8 % Q v.x.c.c.c.[ ^ ^ ^ ^ ^ ^ ^ ^ r.c.[ [ D [ ZXZXPXPXVXCXPXVXCXCXnXVXPXPXPXPXPXCXCXPXHXUXPXIXCX} o 4 % 8 % 8 q y Z Z Z ",
"7 7 8 u q % % A Q 5.3.3.Q Q Q Q ^ 3.5.Q r.~ U Q I J { qXuXsXsXkXkXsXsXcXcXcXcXcXcXcXcXcXcXcXcXcXmXkXA.4 o > - 9 % % % - 7 C 7 y ",
"7 u u % 8 8 - - 7 C A Q <.Q c.b.I Q / ^ H.F I Q F ! S.{ +XtXrXI.I.uXaXyXtXtXyXiXtXtXaXtXtXaXaXaX+XG   $ > , ; : - 8 - % 7 7 7 7 ",
"- 0 % , q 7 % > o + > 0 V I m.oX! U I v..XF.S.[ I e n.y.l.rXtXD.Y.kXyXyXuXyXyXyXaXtXyXyXtX6XG.` $ $ = > - , - , & T m.t - 0 0 8 ",
"0 7 ! c.m.H G  .M i #.a % H.I.J V I c.dX$XL.I.A.D R H.b.S rX+XOX/.uXtXtXtXrX$XOX+XrX@XuXA., $ X n 1.g > % q B - B m.S.r 0 t % % ",
"r ! H.D.F T _ b.y.*.#.*.dXH., D v.H.H.H.d.] n.] B n.~.e.$ A.+XU.fX$X|.|.6X{ Z Z ~ OX[.{ J f $ b.~.v.L.D 7 y r b.U.r.t B L q o + ",
"! I.c.n.% * ^ m.' b.D.3.fX^ ! I.3.H.H.3 2 G ^ ' y U t.1.y T S.H.fX$X XrX XH.L y i J J D J l.J J.dXXXv.J 7 e I AX[ t H.oXt.E o % ",
"0Xb.K.qX1 4 t.2.s b.F.< / c./ n.K.K.r.1 1 @ 1 c h [ P.D.z o.t J.B.f.s.f.F.Y.e.r t = & = O } G.K.xXJ.L 4 q i y B.V.@.^ rXU.Z % % ",
"0XK..XJ @ 2 ; 4 Y e.z 9 < W / K t./.L.g 1 2 4 w l %.a.u.#.l < P o.w.f.w.Y.Y.L.$ > . o & * 2 ) OXqXU T T E A $.$.$.,.r.K.oX% + I ",
"b.} 5 X 1 1 @ 2 1 c x l n n V k./ 1.L.s., @ V I B p X.X...u # k w.w.s.f.^.H.0X} o * > o O @ 2 1 d @.J.y.<.y q :.9.8.fXjXMXK.w , ",
"y.> . . . = 3 @ 2 u ..X.C m K k.[ F L *.L r V V C n e 7 7 9 k X.o.+.w.w.L.H./.fX'   * = 2 ) ` G G P.y.F @.H t 9.;.7.Y.0XzXCXK.% ",
"b.t $ > k c q.2 1 k ..X.h < V W / / N < P J.&.0 n N V N C i X.$.+.o.w.w.a.I.n.Y.'   = 4 ) ) ( m.Y.e.L &.R y.%.:.;.:.U.fXn.1.J.p ",
"I.T 8 k l ..l _ h ..o.#.; n n S V M < < x P.^.u < n N N n C X.X.l +.w.g.w.e.~ Y., o o 3 4 4 4 G G G E e.` ] =.$.=.:.*.M.*.X.$.i.",
"H.y.o a k %.%.x %.%.x 6., n M n n N < I L.*.^.y.= G , F J P O.l +.b +.%.w.l y.H.o & & . . . 1 X G } ) ) ( q.X.=.$.9.=...#.i t T ",
"D r.E a ..q.e.k a z l w.] < n / W K #.*.V.^.s.J.Y.F.N / c.3.O.o.o.w.f.w.o.l &.0XS $ > o . 2 1 1 2 d.} } R -.0.;.0.:.=.x > q t 7 ",
"` w a a z v Y q.q.%...-.*.R n W W S P $.X.=.a.B.T r F c.k.! o.o.j.g.g.w.w.a O H.H.  o   . . 1 @ 6 ( } ( *.:.0.;.;.;.;...- 8 r r ",
"} 4   a j k q.s.a.c %.>.>.$.<.N n , Z p X.+.+.8 + q W v.Z.t.o.o.j.w.w.w.f.q.  3 H.c.~ ~ - 1 1 1 2 3 { e.=.-.0.0.0.;.-.$.u & + a ",
"_ G j k k c q.a.B.Y ..,.p.p.p.Z y i.#.p X.X...% > q / v.Z.T.%.o.l o.w.j.f.g.k O w [ y.R w . 6 1 5 1 j q.=.-.;.0.:.-.;.#.+ + 8 +.",
") ( _ %.k c q.s.s.x ..=.8.J.~.6.>.!.i.p +.p $   # , V / Q Y l +.b o.w.w.h.g.f.3 > + o + o 2 1 2 5 2 a -.-.:.0.-.:.:.;.=.9   a +.",
"} ) z *.z b q.u.%.l x ,.>.V.(.V.s.~.Q.j k k O > 9 - C ..o.l l l 1.o.O.x D Z.fX] o = O O O 6 2 M 2 O X.$.=.-.,.=.:.:.;.;.p X o b ",
"G.y...q.%.a %.%.c ..,.8.p.!./.h.p.!.C.9 l p 9 a k 9 x O.O.> o.L.Y.Y a # # T AXn.X @ . O O . ) XX}.) $.:.=.$...$.;.;.-.:.h 8 a 9 ",
"K.K.%.&.c l x c c $.>.8.p.V.N.p.N.W.t.o : y % . t k ..O.: s (.AX%.& $ & B /.U.# O O o * O   ( OXeX[.R ;.;.=.X.=.-.;.;.,.#.-.=.x ",
"F.XXG O 4 h z 9 z =.>.w.w.,.>.p.V.!.&.. O i y . 9 ..X.a . C./._ &.= $ # ^ AX]   & O = O O O _ OXF.G.d.$.-.,.,.$.%.$.;.;.=.i & o ",
"K.( 2 3 O . 2 J e.z y p -.>.s.>.h.~.e.O y y : O > t.Y O G D.4 $ 0XI.4 = } I.* * & * * & & ; A.[.d.F.$Xq.0.-.P i t % q t 5 1 < > ",
"_   u X.> X w /.J X @ = v s.E : P p.#.# 3 O $ . ' U.= 5 M 1 2 O _ F.J.( 5 5 $ * * > = % & : D.' G a.y.9 h s & > > > > & ; ) ; > ",
"O X p ..@ O ; K.4 = > & s s $ O = M.d O 3 : ; & ] J._ ( D.3 3 3 * . > 5 M T : 5 3 2 * w T U.H.o H _ : D f 5 % , - & = w t.T , , ",
"& t #.P = * * S f > ; ; & = = = > J.] w r e e e e N ] D ' D * 4 4 4 4 = ( J.t.S , w , J r.] H , 4 ; s e.H , r q 0 q q D L q y d ",
"u h 0 0 % - % % > % + > > 9 w > r R n.y.D r N D V D Z y q r w s s f f f s f D f d t D g s r t y t e g j 9 > 3 > : - 9 9 y y i t ",
"9 9 > > 8 9 9 9 9 - 9 9 u u i y y 9 8 h t L L D L D D D L D u L L L I D D L L L L A A I U I L L j > 3 * * O 3 3 : 3 > > : : - 0 ",
"u 9 8 u u 8 7 8 : % 9 h y a y y h h 9 w 8 g h w j d S S t h i Z <.2.4.5.2.4.4.4.~ E g L U 7.I * O O * O 3 3 : s t t t t B t y t ",
"u u t i Z i y y t t L Z Z A A A i q - > w 0 , * 0 T T E ~ 3.v.t.Z <.B.M.M.z.M.~ f h h s t 4.D O O 2 ; : 9 j g r D L D L L L L h ",
"@.A @.<.U <.5.5.5.5.4.4.4.5.5.4.5.@.D g t q t r , S D J ~ ~ ~ ~ 4 r <.5.z.z.x.D H I R I h 3 3 : 3 : > 3 s d g g D R T T T T E D ",
"E.Z.T.N.z.z.7.7.4.7.4.4.4.4.3.5.3.4.5.5.5.<.<.<.U <.<.U U U <.3.4.5.7.N.Z.).~ E T H E E h * * * 3 j 4 9 s d 0 D T I T R R R R R ",
"4.z.5.U I A Q Q U I R U U A <.2.x.z.v.M.M.M.v.x.7.4.5.4.1.2.v.M.M.M.M.M.2.1.H H H d D E g O + > * + : s d d e D I T E D D E T E ",
"D N q N B B C D t D f s s f g D T 1.4.4.i.M.z.t.3.D f N d N N S B V K S S H H H H J T T D f d h j 0 w d D S J D H E ' ! T E T E "
};
