/* XPM */
static char *a7ace3719f4f4707c0fe7b69ad27fa85Iqvo53gt5b3iJui1[] = {
/* columns rows colors chars-per-pixel */
"64 64 256 2 ",
"   c #0C0C05",
".  c #1B0D04",
"X  c #150D09",
"o  c #1B0E0C",
"O  c #140B04",
"+  c #15120C",
"@  c #1C130C",
"#  c #1B1509",
"$  c #1C1412",
"%  c #1D1914",
"&  c #181616",
"*  c #170F0D",
"=  c #240E05",
"-  c #22140D",
";  c #2A140C",
":  c #24190E",
">  c #291608",
",  c #371909",
"<  c #231612",
"1  c #241A14",
"2  c #2A1C14",
"3  c #231D19",
"4  c #2A1E1A",
"5  c #251616",
"6  c #331C13",
"7  c #3B1C13",
"8  c #351D19",
"9  c #320F00",
"0  c #3A220A",
"q  c #2C2216",
"w  c #2C221B",
"e  c #23211B",
"r  c #342215",
"t  c #3B2314",
"y  c #33251C",
"u  c #3C251B",
"i  c #3C2A1C",
"p  c #352A1A",
"a  c #3A321E",
"s  c #2B2823",
"d  c #322622",
"f  c #352B23",
"g  c #3B2C23",
"h  c #382925",
"j  c #3D332B",
"k  c #3D3325",
"l  c #293638",
"z  c #383A35",
"x  c #2C332B",
"c  c #1E2927",
"v  c #451B07",
"b  c #421D14",
"n  c #4A250C",
"m  c #55280C",
"M  c #422514",
"N  c #4C2A14",
"B  c #442C1C",
"V  c #492818",
"C  c #542D14",
"Z  c #562B18",
"A  c #49321A",
"S  c #533216",
"D  c #54321C",
"F  c #5B341C",
"G  c #58381B",
"H  c #5D380B",
"J  c #65371A",
"K  c #753C18",
"L  c #713909",
"P  c #432D23",
"I  c #482E22",
"U  c #443424",
"Y  c #43342A",
"T  c #4A3828",
"R  c #583925",
"E  c #483C32",
"W  c #55352B",
"Q  c #673B25",
"!  c #743C26",
"~  c #38423A",
"^  c #77451B",
"/  c #6D481A",
"(  c #5D442C",
")  c #574426",
"_  c #4C4434",
"`  c #574736",
"'  c #5A5339",
"]  c #4C412D",
"[  c #684629",
"{  c #7C4A24",
"}  c #764728",
"|  c #78552A",
" . c #664A34",
".. c #754C33",
"X. c #695539",
"o. c #765636",
"O. c #6B5328",
"+. c #7C612E",
"@. c #594417",
"#. c #313E45",
"$. c #2D3A44",
"%. c #3C4C4C",
"&. c #384746",
"*. c #384D51",
"=. c #3E5454",
"-. c #3C5759",
";. c #3C514E",
":. c #444D4A",
">. c #45534D",
",. c #585849",
"<. c #435453",
"1. c #435A5B",
"2. c #4B5D5B",
"3. c #485856",
"4. c #555C56",
"5. c #4D4C4C",
"6. c #665944",
"7. c #735743",
"8. c #4B615B",
"9. c #57645B",
"0. c #5F624F",
"q. c #696448",
"w. c #796348",
"e. c #64695A",
"r. c #7A6752",
"t. c #74765B",
"y. c #485E63",
"u. c #595A64",
"i. c #4B6263",
"p. c #4A6567",
"a. c #526462",
"s. c #576B69",
"d. c #5C716D",
"f. c #5C7B7C",
"g. c #577778",
"h. c #506E78",
"j. c #68756B",
"k. c #617D7C",
"l. c #677B76",
"z. c #6E7267",
"x. c #854B19",
"c. c #97541C",
"v. c #8C501E",
"b. c #A65D1C",
"n. c #844C26",
"m. c #885428",
"M. c #975829",
"N. c #875A35",
"B. c #965B33",
"V. c #824D35",
"C. c #A25E26",
"Z. c #8A6537",
"A. c #986539",
"S. c #8D6932",
"D. c #A6652A",
"F. c #A56A37",
"G. c #A9723B",
"H. c #B77638",
"J. c #B46D30",
"K. c #AF651C",
"L. c #C47C38",
"P. c #886847",
"I. c #946B46",
"U. c #99744A",
"Y. c #897557",
"T. c #977856",
"R. c #8B6F50",
"E. c #A67647",
"W. c #B67C49",
"Q. c #A77C56",
"!. c #AC754B",
"~. c #947D64",
"^. c #847B65",
"/. c #835B42",
"(. c #66827D",
"). c #77867A",
"_. c #7F846D",
"`. c #99815A",
"'. c #AB8457",
"]. c #B58959",
"[. c #B58A55",
"{. c #868365",
"}. c #8F8B70",
"|. c #A98966",
" X c #B78C63",
".X c #BA9767",
"XX c #B89874",
"oX c #AC926A",
"OX c #BDA172",
"+X c #C78B51",
"@X c #C69B67",
"#X c #C69C71",
"$X c #C9A26C",
"%X c #C9A677",
"&X c #D4AA76",
"*X c #DBB57A",
"=X c #D2A36C",
"-X c #E2B67D",
";X c #D5A059",
":X c #5C7D83",
">X c #557983",
",X c #617F81",
"<X c #5E8186",
"1X c #5E8690",
"2X c #648283",
"3X c #6A8584",
"4X c #6D8A85",
"5X c #63848B",
"6X c #6C8B8C",
"7X c #68888B",
"8X c #738E8B",
"9X c #778B86",
"0X c #76918D",
"qX c #7C948C",
"wX c #7D9086",
"eX c #688B92",
"rX c #728E91",
"tX c #749293",
"yX c #7C9593",
"uX c #799798",
"iX c #6E9197",
"pX c #82958D",
"aX c #84998E",
"sX c #8A9B8E",
"dX c #849B93",
"fX c #8B9E93",
"gX c #869B97",
"hX c #90958B",
"jX c #8DA195",
"kX c #8DA29A",
"lX c #87A09D",
"zX c #93A395",
"xX c #93A59A",
"cX c #95A99D",
"vX c #9BAB9C",
"bX c #9BA797",
"nX c #A8AC9A",
"mX c #9CADA2",
"MX c #96A9A4",
"NX c #9FB1A5",
"BX c #A3B3A3",
"VX c #A6B7AB",
"CX c #ACBBB1",
"ZX c #BA9F81",
"AX c #DAB886",
"SX c #D1B189",
"DX c #E5BC83",
"FX c #ECCB8D",
"GX c #E9C387",
"HX c #EBCB96",
"JX c #EED395",
"KX c #F2D499",
"LX c #F1CE91",
"PX c #F3D6A6",
"IX c #EED7A5",
"UX c #FEE6B7",
/* pixels */
",X:Xf.k.g.(.(.g.(.g.(.(.(.g.g.g.p.(.h.h.>X<X<Xg.g.g.(.g.:Xf.>X:X<X(.g.(.<Xg.<Xg.f.g.g.g.>Xh.>Xg.>Xh.>X1X:X:X:X:X>X:XeX1X>X>X>X>X",
"5X2X,X,X(.(.(.(.g.(.(.(.<X<X<X<X(.h.(.(.<X<Xg.(.g.g.(.(.f.:X2X<X(.<X(.<X<X>X<Xg.f.f.>Xg.>X>X>X>X>X>X>X:X:X:X1X:X:X1X:X5XeX1X1X1X",
"7X6X7X3X(.<X(.(.(.(.(.(.2X2X<Xf.(.(.(.(.g.(.(.<X<Xf.<X<X,X:X,X5X<X(.<X7X<X<X1X7X3X5X5X<X<X<X<X<X<X<X1X:X:X5X7X5XeXeXeXeX1XeX1X1X",
"3XrX6X8X4X6X4X(.(.(.<X7X3X2X<X(.(.(.(.(.(.<X<X<X4X<X(.1X3X8X6X7X7X4X2X3X(.3X4X5XeX6XeX3X1X3X7X7XeX7XeX7X6XeXiXiXeXiXeXeXiXiXiXiX",
"6XtX8X4X4X0X8X8X0X0X0X0X0X0X0X8X4X4X4X(.).4X9X9X4X2X3XrX9X9XqXpXgXhXpX3X9X3X3XtXtXtXtX8X6X6X6X6XeX8XeX0XrXtXtXtXrXtXiXtXiXuXiXuX",
"0XyX0X9X0X0XqXqXqXqXqX0XqX0XqX0XqXqX0X0X0XqXqXpX9XwXpXaXhXpX).wX9X,XpXpXqXwX9X0XtXuXyXtX0XrX0X0X0X6XtX0XtXuXtXuXuXyXtXtXuXuXuXuX",
"qXdXyXyXdXjXqXqXqXqXwXqXqXqXyXaXyXaXqX0XqXqXpXpXaXhXpXz.4.5.E j z z ~ 5.8.l.wXdXqXpXqXqX8X8XqX0X0X8XyXqXyXyXyXdXlXgXuXyXgXlXlXlX",
"qXdXyXpXqXdXqXaXjXsXaXaXsXdXsXjXjXjXjXjXjXjXsXzXzXt._ T ` ` T U h d e 3 e e z l.aXfXdXaXqX0XaXuXdXdXfXdXdXlXdXkXlXgXgXgXlXlXlXlX",
"9XaXdXgXgXfXxXfXkXxXzXjXjXjXzXzXxXhXgXMXfXxXbXhX,._ X.R.`.w.o.' I Y h 4 % % & & 8.bXsXjXqXqXaXqXyXjXjXjXcXjXjXzXfXgXfXfXfXxXxXgX",
"9XdXfXMXMXxXxXmXzXjXjXkXjXcXvXzXzXbXbXxXMXbXbX,.' oXSXAXAXSX%XoXR.Q B r < % & &   8.zXjXzXjXcXsXjXkXkXcXcXcXcXzXjXxXjXfXxXxXxXfX",
"pXkXgXkXxXxXMXcXNXvXmXvXxXvXvXvXvXvXbXmXBXnX6.) XXHXHXLXKXJXDXAX.XP. .A 4 5 5 & +   z.BXzXsXxXkXcXcXvXcXzXvXBXbXbXjXjXxXxXMXmXfX",
"yXMXMXVXMXfXMXVXNXVXVXVXVXVXvXvXBXMXbXnXnX^.u X.%XAXGXDXGXGXDX$X.X'.w.` h 5 5 & &   x pX).jXdXjXcXcXcXzXcXBXBXBXBXnXbXvXxXNXNXMX",
"k.pXgXlXgX9XaXNXVXVXmXmXCXVXNXmXVXNXCXCXhX_ 0 R.SXAXDXDXGX-XGX=X$X.XoX~. .2 < $ & X & 2.l.l.l.).uXaXaXkXvXBXvXBXBXnXBXxXfXmXVXgX",
"i.k.,Xd.l.3Xl.pXyXpXwXwXaXxXNXCXCXCXCXCX^.A 0 T.%X@X=X*X-X$X[.[..X[.T.P.( 8 < $ & &   &.2.9.l.(.(.0X(.qXvXBXBXBXVXCXbXdXaXgX0X3X",
"l y.y.y.d.k.k.l.j.l.j.d.l.l.3XMXCXCXCXbX,.A A ..Z.Z.S.@X#X| N.E.| / J o.7.u < 1 & & & l 3.3.i.g.p.(.d.(.jXVXVXVXCXBXvXzXqXdXdX9X",
"$.1.a.h.d.s.k.d.s.d.a.y.s.l.d.gXxXl.).hX` t M T.XX'.'.&X@XA.@X=X[.].XXXX7.r : @ X & & s >.%.-.p.8.8.8.(.).VXBXBXnXbXbXaX9XdXlX3X",
"&.y.u.y.s.s.s.i.a.2.3.2.3.3.2.8.a.a.4.e.` 7 b |.AXDXDX-X@X].&XDXDXDX%XT. .6 - @ @ @ $ c >.8.8.p.p.p.8.8.(.).cXBXzXzX}.zXqXqXqX).",
"<.y.#.3.1.<.2.<.8.8.2.2.<.*.*.=.:.3.&.z h V , /.SXDX=XDX=XW.$X-X-X=XQ.N.T ; @ @ @ @ $ % _ 8.8.d.(.p.(.(.(.0XqXqX).).(.(.).qX(.(.",
"<.<.$.#.<.<.3.3.3.8.3.i.3.<.-.<.<.%.&.x h b 9 Q  X%X=X@XB.}  X-X@X[.I.[ I 2 - < $ o & & x ~ &.&.*.*.*.*.-.p.g.p.(.8.-.8.p.8.p.p.",
"$.$.#.$.<.<.<.<.>.<.1.8.1.<.<.1.%.*.&.j 8 7 7 b U.].@X XI.N.E.E. XW./.[ I 5 5 < - o + & c ~ &.%.*.*.*.*.-.-.-.p.p.(.8.-.-.-.y.h.",
"$.#.#.&.3.3.5.<.3.<.=.;.*.*.*.*.:.:.:.E d 8 7 6 Q |.#X@X'.S.A.]. XU.o.R u 2 2 < < o < % x :.%.>.*.-.-.-.-.-.p.p.y.1.-.-.-.-.i.h.",
"$.$.$.&.%.%.5.3.;.&.;.%.*.<.3.2.1.<.4.:.P u 8 8 , V `.*X*XXX XQ.P...R I 8 - < - - o $ 5 s >.>.>.-.p.-.-.-.-.-.;.*.1.1.i.-.-.i.i.",
"l l &.$.#.#.*.3.>.%.%.&.%.:.:.<.3.8.a.4.Y 8 7 b 6 9 0 w.~.R.7. .R D B u 8 4 < < 5 - $ & e ~ >.3.8.8.-.-.-.-.8.-.=.1.1.i.1.1.i.-.",
"c l ~ &.l #.&.<.3.>.>.%.5.2.a.a.d.l.l.z.Y 8 8 8 , > 6 9 M R D N V B B I Y P 6 ; - @ @ < % x %.~ ;.-.;.;.;.~ ;.~ &.;.<.8.3.y.i.=.",
"l l $.$.l &.&.%.>.4.8.9.s.d.d.d.l.l.j.e.,.8 8 7 6 ; r t A T.P.O.[ [ O.X.o.' t 0 > # : : # x >.>.8.8.8.8.8.8.>.4.8.9.4.>.3.a.d.u.",
"l #.:.:.>.;.>.9.9.e.,.0.>.,.9.e.9.e.9.4._ r 6 , 6 r 2 0 S `..X'.U.P.R.`.`.P.) 0 , : r q # % s ~ ~ >.>.s.9.9.j.).l.z.d.e.a.2.s.u.",
"~ 5.4.4.9.,.0.q.q.X.' ) ' ' a ] ] ] j j p - 6 6 q 0 A o.`..X#X$X.X.XOXOX.XoXZ.N M A B i : # # s ~ x ~ ~ ~ ~ j.}.z.e.e.l.u.5.u.u.",
"5.E ` 5.' _ ' X.X.O.@.O.O.) M a 0 a ] q 2 2 6 t B P.oX%X*XDXAX&X*X*XDX*X&X$XU.G V R T i q q 1 q ~ ' e.).)._._._.t.e.0.9.3.4.u.u.",
"Q  . .( R ) o.O.O.O.+.+.O.@.A ] u p E y - ; b N P.&XDXGXHXFXFXGXGXFXFXGX*X$XU.@.S W T , 2 r q 2 q ~ ] _.}.}._._._.t.t.t.e.e.,.4.",
"[ .. .....[ o.I.+.S.S.+.@.@.@.) W T k 1 1 r G { .XGXGXFXLXFXFXFXFXFXGX*X*X$XA.Q R T t = r B T a q : a _ q.t.{.}.R.Y._._.t.z.0.6.",
"[  .Q W [ F [ | S.E.S.S.+.@.O.X.T q : 1 q R P.'.GXGXHXPXJXKXFXLXFXJXFX*X*X.XZ.@.R R A R  .6.w.' ] p % : a ' 6.R.`.{.}.}.}.}.t.r.",
"R  ..... .[ [ J H / S.S.+.+.+.@.> q w 2 B Y.%X-XFXJXPXKXJXJXKXJXJXJXFXGX*X.XZ...( 6.Y.}.~.Y.q._ k p q # : > i R G @.O.w.{.Y.^.^.",
"T X...} { [ | { } / | m.S.U.X.> 1 4 8 2 T T.AXKXJXIXHXFXJXKXJXIXJXJXJXJX*X.X`.X.r.r.,.` j y : : - @ - 1 1 : 6 B D Z Z ! /.~.~.Y.",
"I Q } ! m.| N.N.S.A.S.S.+.G > $ 1 w w h W  .R.|.%X%XSXJXPXPXIXKXKXKXJXGXoXR.X.] k p w - $ @ < @ @ @ @ < @ - > 6 W Q ! Q F Q W  .",
"8 I  ...V.A.B.n.m.m.m.O.0 = 5 4 3 f f E 6.` W  .X.+.S.`.|..XXXSXAXZXoXY.' ' a q q < 1 w y d w - - - @ - 5 q : 6 b R Q Q Q [ W T ",
"i t Z ..| N.I.B.A.A.I...r p h o e 4 j 5.` T W ` ( X.o.| ..o.X.O.+.X.X._ k p # # @ w f E g d q 2 : : < < - : : > , V Z Z Z ( R M ",
"q u 7 Z ! ! V.n.{ n.V.R 8 8 d E p 2 Y g j f Y g _ X.X.X.X. .( R ( ( B p 2 @ @ e s d f f p k _ ] g Y g 4 < 1 : 2 6 M R R W V I M ",
"y g 6 W ! ! V.! } ..! I 8 4 8 z.^.X.U r r y i p ) ] ] ] R I R w.~.r.q : # @ 3 w d 2 q w i _ _ ] T Y y 5 < < 1 1 2 , B W B M B 7 ",
"i i B o.P.P.R.I.I.I.W P d 3 5 6.XX|.o.[ N G S S S A G D D [ Y.XXSX^.> : 1 - : 4 < : q g B ' _ _ f 2 @ # : < 1 r 6 2 u Y E B i p ",
"T E 6.r.Y.R.R.T.Y.w.P r 4 d 4 B ~.I.I.U.A.Z.N.N.N.m.P.o./.Q. X#XZXw.# # : 1 ; : - : g U U _ g 2 @ @ # - - - 2 f w r r T ` _ T P ",
"E E E ` ` X.X.6.,.P 4 4 f y f , [ I.Q.].[.F.G.F.E.E.].W.G.A.!.Q.oXV = # % # 1 @ - w f g 8 8 ; o : # @ - < - 1 w 2 1 q w g k Y k ",
"T T Y z T E T h 8 d d d p a P D ..Q.H L +XH.H.@XG.m.x.G.A.F.F.!.I., > 2 - : . # @ w d 5 5 - - - - : < : - 1 1 5 1 3 1 e w p f k ",
"E Y Y E E g f f h 7 g P a T S o.B.E.W.L B.B.M.M.m.^ x.[.G.c.c.M.A.A.G , > # # # @ w 1 X - o o < - - - @ @ : 1 e e e e q w f P Y ",
"T E j j d p y h P P I I B i S P.U.F.W.E.c.M.B.B.F.G.F.A.F.F.J.H.M.M.m.H , > . = - - o O O $ 1 < : ; - @ @ @ 1 e 3 % 3 3 w h P Y ",
"Y E j d f y i t 7 b 7 7 u B W P.E. XQ.E.B.!.W.W.[.[.A.A.I.M.n.M.x.L M.D.x.K n , > = O # # # - > ; 2 ; @ @ % 3 % % 3 e e w k Y j ",
"T P 8 2 r u , M V Z W Z R W W o.o.I.{  XSX X!.B.Q.].E.I.B.n.n.K x.D.L.+XL.H.F.{ Q @.n > . = > = - ; - - @ @ % < 1 3 3 % e y h P ",
"g g T u , r 7 C F ! ! Q Q Q D Z F G R /.I.T.T.V.S G o.} } m.n.K n.M.b.b.K.L.L.L.H.D.A.N.N > = : - = o @ @ @ $ < < 5 < 1 % q y g ",
"g ` r.Y.( > v C K { V.! ! ! ..[ C F Y.Q.~.R./.! G S Q V.N.K K n.x.L x.K.D.K.K.L.L.L.D.m.[ 0 . : ; - @ # o $ $ 5 4 % % 3 % 1 e y ",
"g U  .|.T.N , n ^ } J ! ! J Q J }  XDXSXDXSX&X.X].Q.I.m.K M.F.C.c.c.c.C.J.L.L.D.L.J.D.K R b = 5 - # # - < o $ 5 < 1 3 % e e 1 d ",
"Y 7 q B  .o.C m m n } J v J Z J } '.#X#X@X#X=X=X=X+XW.M.M.C.C.J.L.L.L.J.J.H.L.J.c.C.V.J m 7 = = > = # @ % 4 4 5 1 1 5 % e % e d ",
"j r q r T ....} m v v v Z m m Z J | I.P.U.Q.].@X+XG.D.M.D.C.D.H.W.W.+XW.D.M.B.F.n.V.J v v b , 9 ; = - < < 1 e @ < : 1 5 3 % 4 f ",
"z w < 2 - 6 Q ....[ F C v v v v , n A Q V.Q.W.W.A.D.D.J.H.W.F.x.M.M.m.B.A.x.n.n.! m Z W Z Z W b ; = @ < - 1 q : @ 3 % < 3 1 8 f ",
"f q : ; ; - 6 f ' o.U.I.V.C v 9 I o.P.|.T.Z.U.A.M.F.J.G.H.E.N.{ ! ! Q V.! Q } J m Z m ! Q V b Z 7 5 o o o o @ % $ 5 5 % % 5 d f ",
"q 2 < < 5 o $ : > p O.R.} Z F ../.P.|.XX.XU.x.A.M.v.F.G.G.{ C R F v N Z Z Z Z V Z ! J v Z V b b b 6 o O . @ @ @ $ % & % 3 3 f h ",
"q 1 $ % 5 < 5 - : > 7 t B n C ....E.U.'. X XN.m.M.c.G.G.S.H n Q N...Z v b b b V b b Z V M , , = ; 9 . O O @ + $ & % & % 3 3 f f ",
"5 % + $ $ $ @ 2 2 2 1 ; 2 M [ [ /.V.B.Q. XZ.} A.x.^ D.=XAXP.S R F  ...V 7 b ; 8 9 9 , 9 9 , , , b b 6 = O X + $ % % & & s % s d ",
"& & @ @ o - 5 2 1 1 < : ; 6 r I ( ..I.Q...m [ '.S.[.[.SXSXT.N Z M 7 t V , , , , , , v C Q J { } ! Q I 6 o X & $ + % & % e % w e ",
"e + 5 1 : 2 2 < - 2 ; - - 4 4 2 0 R w.R n / T.PXIXUXUXoXo.o. .b V I V Z V Z o./.o.} } n.m.m.B.m.| [ D 7 . o $ 3 $ % % & % % e % ",
"4 5 < 1 ; q o = : < - 1 1 1 1 % : q W u R 7.R.SXOXoXOX`.G P.R.Z V D W Q Z ! V.B.B.M.v.n.x.x.m.m.K J Z b o o o 5 < < $ $ % % 1 1 ",
"5 $ - # 1 @ - o - - 5 4 5 $ 1 1 1 e w y E X.P.R.w.R.P.o.[ P.Q.@.n D V Z Z J K x.M.x.L v.x.A.m.m.^ J V b = o o o 1 $ @ @ $ 5 3 1 ",
"< o - 5 $ X o $ % + % & $ % 4 w w 3 $ $ 2 u X.w.R.P.+.N.T.E.Z.} G , , Z m J x.n.B.x.L x.K J J } } J S u # O @ o < @ + + o $ 5 % ",
"1 $ d d 4 4 5 4 s e % e d d y y d 1 % o # - r (  .( o.P.Z.I.Z.o...V N D Q ! K { B.B.n.{ } J Q F [ Q R I :   X X o + + X * o $ $ ",
"$ @ d & d 3 1 d f s j j j y 5 1 % $ % X o @ o r i A X.( G [ o.X. .( R D Z F F m F [ / S n C R C N N B u # # + O O O + + & + + + ",
"< $ @ X X X X + + 5 q e q : < < @ & @ + & X @ % a p i T A R R R ( R R n n N n Z G n C n n C C N n N u y #               X   + & "
};
