/* XPM */
static char *_096516edf7f4096fc378511b0ab1a81T1lWzQBUTUJ2CfkC[] = {
/* columns rows colors chars-per-pixel */
"64 64 251 2 ",
"   c #1C0D0D",
".  c #160908",
"X  c #1D110D",
"o  c #1F1104",
"O  c #0E0E15",
"+  c #0E0D19",
"@  c #140E14",
"#  c #190F13",
"$  c #160D19",
"%  c #0F1218",
"&  c #141116",
"*  c #1B1215",
"=  c #151319",
"-  c #1B141A",
";  c #1C1A1C",
":  c #1B1919",
">  c #0B0100",
",  c #260C04",
"<  c #251609",
"1  c #361907",
"2  c #231514",
"3  c #291612",
"4  c #251A14",
"5  c #2C1C14",
"6  c #20141A",
"7  c #221D1D",
"8  c #2A1C1A",
"9  c #331D16",
"0  c #3D1D14",
"q  c #341E19",
"w  c #350D00",
"e  c #28211B",
"r  c #3D2215",
"t  c #35231C",
"y  c #3C251B",
"u  c #382719",
"i  c #3C230D",
"p  c #1E1C21",
"a  c #161A26",
"s  c #211F21",
"d  c #2E1E21",
"f  c #1B2632",
"g  c #192B37",
"h  c #242123",
"j  c #2A2425",
"k  c #28272A",
"l  c #3C2A22",
"z  c #352927",
"x  c #3C322B",
"c  c #262C35",
"v  c #322E33",
"b  c #2D333C",
"n  c #28333B",
"m  c #3C3B3C",
"M  c #353538",
"N  c #2C302F",
"B  c #431D05",
"V  c #471F16",
"C  c #462508",
"Z  c #432415",
"A  c #442A15",
"S  c #4B2A15",
"D  c #42251A",
"F  c #442A1C",
"G  c #4B2C1B",
"H  c #492615",
"J  c #522D1B",
"K  c #542D15",
"L  c #4D321C",
"P  c #49341A",
"I  c #52331D",
"U  c #5B341C",
"Y  c #59371A",
"T  c #532806",
"R  c #6A350C",
"E  c #643819",
"W  c #743C16",
"Q  c #6A2E07",
"!  c #442C22",
"~  c #4B2E22",
"^  c #412A25",
"/  c #443124",
"(  c #4C3324",
")  c #4B352A",
"_  c #48372C",
"`  c #523423",
"'  c #5A3622",
"]  c #543A24",
"[  c #5B3A24",
"{  c #543B2B",
"}  c #5B3D2B",
"|  c #54362B",
" . c #473B36",
".. c #573D34",
"X. c #643D23",
"o. c #673D25",
"O. c #713F26",
"+. c #6A411E",
"@. c #77461D",
"#. c #59412B",
"$. c #4A4138",
"%. c #594537",
"&. c #6D4525",
"*. c #64442C",
"=. c #6C452C",
"-. c #694527",
";. c #744B2C",
":. c #774827",
">. c #7C512B",
",. c #6C4A33",
"<. c #664735",
"1. c #734C33",
"2. c #7A4E33",
"3. c #67533D",
"4. c #7B5334",
"5. c #7B563B",
"6. c #765437",
"7. c #1B3347",
"8. c #1A2F4A",
"9. c #243544",
"0. c #2B3442",
"q. c #293B48",
"w. c #333D49",
"e. c #343944",
"r. c #273D54",
"t. c #353F51",
"y. c #443E43",
"u. c #34424D",
"i. c #3B424A",
"p. c #2B4559",
"a. c #364859",
"s. c #2E414A",
"d. c #374C63",
"f. c #395367",
"g. c #32536D",
"h. c #494546",
"j. c #584B47",
"k. c #4B4C54",
"l. c #564C55",
"z. c #4B525A",
"x. c #575557",
"c. c #56524A",
"v. c #634D47",
"b. c #675646",
"n. c #765A47",
"m. c #685B54",
"M. c #715F53",
"N. c #696259",
"B. c #78675A",
"V. c #78614A",
"C. c #475665",
"Z. c #575B65",
"A. c #475970",
"S. c #4B6579",
"D. c #686666",
"F. c #767373",
"G. c #84491B",
"H. c #854C27",
"J. c #89552B",
"K. c #96582A",
"L. c #835433",
"P. c #8C5C3B",
"I. c #885937",
"U. c #9B5D34",
"Y. c #945C38",
"T. c #89613B",
"R. c #93633D",
"E. c #986438",
"W. c #9D652D",
"Q. c #A3683A",
"!. c #B0733B",
"~. c #885C42",
"^. c #925F44",
"/. c #896447",
"(. c #936444",
"). c #9B6943",
"_. c #9A6C4B",
"`. c #966948",
"'. c #866B56",
"]. c #976D52",
"[. c #8D7256",
"{. c #997759",
"}. c #98724C",
"|. c #A46E46",
" X c #A87449",
".X c #B37B4C",
"XX c #B47746",
"oX c #AC7D5A",
"OX c #A67A56",
"+X c #B67D56",
"@X c #897767",
"#X c #987B67",
"$X c #877A72",
"%X c #A97C62",
"&X c #B8814D",
"*X c #A8835D",
"=X c #BB8453",
"-X c #B4835B",
";X c #BA865A",
":X c #9C8268",
">X c #928476",
",X c #AC8463",
"<X c #A98868",
"1X c #BA8A63",
"2X c #B58966",
"3X c #BA9269",
"4X c #AA8B74",
"5X c #B69577",
"6X c #AF9075",
"7X c #9E805C",
"8X c #C48C5C",
"9X c #C58858",
"0X c #CB935D",
"qX c #D69458",
"wX c #CC8A4E",
"eX c #C78E66",
"rX c #CA9668",
"tX c #D39C6B",
"yX c #D69965",
"uX c #C69A75",
"iX c #D49D74",
"pX c #C7A27C",
"aX c #D9A575",
"sX c #D8A570",
"dX c #E3A878",
"fX c #E3A46A",
"gX c #E09E6A",
"hX c #4E718D",
"jX c #6E8693",
"kX c #6488A0",
"lX c #9A8C84",
"zX c #8D8D8D",
"xX c #A89887",
"cX c #B19B8A",
"vX c #BBA588",
"bX c #BAA793",
"nX c #9FA3A4",
"mX c #CAA886",
"MX c #D4AC86",
"NX c #DBB58B",
"BX c #CDB293",
"VX c #E4BD95",
"CX c #E7B185",
"ZX c #CFB6A8",
"AX c #D8AE95",
"SX c #ECC49A",
"DX c #DBC7AF",
"FX c #F4CDA4",
"GX c #F2D1AF",
"HX c #DAC9C1",
"JX c #EBD5CB",
/* pixels */
"k h h k k h ; h h h f ; h p h h p h h p p h s 7 s e h s h h h h h h ; h s 7 7 ; s 6 7 7 7 7 7 h h s 7 7 7 e h e 7 h h e h j j h ",
"h e ; p s s ; h ; ; : : ; : ; ; p ; p p p p 7 7 7 ; ; : ; s p p p ; ; ; ; : ; ; ; ; ; ; : 7 : 7 7 7 6 * 7 7 7 * * : : ; - * - = ",
"; e h : : : ; ; : % : ; : ; ; ; p ; - ; p s ; p ; ; ; s 7 ; : : ; p ; ; = : ; ; - 6 p p 7 6 ; 7 7 7 * & : j k j k j j j s : = : ",
"p ; h : % : % : ; : % ; % : a ; ; : = ; ; ; ; ; s ; ; : : 7 7 : ; ; ; = = = : ; a - 6 6 ; * * - * & # @ * 7 7 * 7 : : 7 ; : = = ",
"p ; ; : = : : a p ; % : : % : : ; = - ; ; ; ; ; s 7 e 7 7 7 : : 7 : : : : = : ; - p p p p * - # & & @ & & - & @ & & & = ; ; = ; ",
"h ; ; = a ; : : ; ; : % a : : % = ; : ; ; ; ; 7 7 7 e e e e 4 X 4 4 * * * = * : * ; - 6 - - * & # @ . @ . @ & & @ & = = & & = = ",
"p ; ; ; ; : : : % : ; ; ; : % a = ; ; ; 6 ; 7 4 e e 4 < < e u u 5 e 5 4 2 * * # - $ - - - - * @ $ = & & = @ @ @ & * = = $ = ; a ",
"; : = ; : % % % : % % % ; % : % = = - ; : 6 7 4 4 e u l ( ] P P ( L ( l u 9 3 2 6 6 * * $ - - = = * & @ O @ & & & & = O @ @ @ @ ",
"; ; ; = = : = = % % = = = = = = = p = = : 2 2 5 u _ ] ] P P +.6.#.Y ] P G / l 5 2 * 2 * * * = - $ = = - = $ @ @ @ @ = O @ = = = ",
"p a ; : = = % = % % = : = = = % = = ; * *   5 l #.-.#.#.6.7XNXSXpX{.6.Y I A ( F 9 2   * * * = - - * $ = @ @ @ @ @ @ @ @ $ O = = ",
"p ; ; % % & % = : : % & & & % % = = * * 4 5 ! ] ] ] }.pXGXGXGXGXSXSXpX*X6.Y S ( ~ 9 < X * & & - - @ # @ @ - @ - @ @ $ @ @ $ = - ",
"p = ; = & = = = % % % % & % % O O & * * 8 y ) I P 6.NXGXFXFXFXSXVXNXpX3X}./.X.G ) F 5   . @ * - - # & $ @ $ = $ @ = = @ @ @ @ = ",
"= = = = = = O O O O O = % & % O O @ # 2 u ( I S -.pXVXSXFXFXSXVXNXMXuX*X*X`.1.I I ( y 3   # & & @ # $ & & @ $ @ @ - $ @ @ @ & - ",
"; % = % = = = O & O O % % % O O O @ * 5 / ( L L 7XaXVXFXFXSXVXVXNXMX3X3X*X}./.Y G G ^ q 2 @ @ * * = * - $ # @ @ @ $ @ @ @ & = = ",
": = = % = = = = = O % O O O O O @ # 4 z _ ` A Y 7X3X3X3XpXsXpXMXpX2X}.7X}./.5.[ Z H ~ l 3 * @ = - * # @ # @ @ @ $ @ @ @ @ # & : ",
"= % = = & = O O & + O O = & O O # * 8 l ) | C X.>.T.I.;.>.}.pXpX{.+.>.&.;.+.+.Y H G ! y 5 2 - - * # # @ @ @ $ @ $ - - @ - @ # - ",
"% % = = & & : O % O O % & O $ $ # 3 l ^ ( ( G K E J.>.>.J.J.3XaXP.&.;.+.&.E J J J ~ | F 9 2 * # = * * & $ # @ @ @ $ - - - - 6 6 ",
"+ a & & & & % O % O O % & & $ @ 2 3 y y ~ G H ;.4.I.R.T. X*XuXMXI.L.}.T.:.E X.o.J J } D r 3 * # & @ * @ # * * $ @ - - - $ * # * ",
"= O = : = = & O % O O O & & @ &   3 y / ] P S `.3X2X,X<XuX3X<X<Xn.`.-X XT.J.I.2.J J ` r t 3 # $ @ @ @ @ # * - $ $ - - - * $ # # ",
"= & & & = O = O O % O O % & @ X # 5 / L } K C /.uXMXBXmX:X[.7X:Xb.b.[.6X5X3X].1.J J ` r r 3 X # - * @ @ $ * * * * - - - 6 * * 2 ",
"& & O & & O O O O O O @ & O @ $ * l ) A I J K n.[.%X#X#X@XB.'.>XD.c.c.N.'.'./.v.J G G F D q X # * = @ & @ $ # * - * * - - 6 - $ ",
"& % & % = % O O & & O @ O @ $ # 2 l ( F ] S ' '.'.'.B.@XF.m.N.D.x.z.x.l.l.l.v.v.V D G ~ ^ 0 3 2 # = - @ $ * @ * 6 - 6 * * 6 * # ",
"% & = = = = O % = & O . . & = # 3 ^ F ` } Z ( n.M.F.N.D.D.x.x.c.Z.Z.z.l.l.l.l.%.y Z H ` ~ ! q 3 # & @ @ - $ # # # 6 6 # * 6 - - ",
"O : = % : = & = = & O @ & = & * 9 ~ r G <.~ | j.m.m.N.x.Z.m.c.x.l.z.z.k.k.l.j. .y Z H J ' ~ ^ 8 # = & - - & @ # # # * * * - - - ",
"& & & & = @ $ a $ $ - @ & @ @ * y ( C G G ` ! ..j.m.x.x.z.Z.D.x.x.z.k.k.k.h.h._ u i Z [ J V y t # - $ @ - - - $ # 2 X # 6 * - s ",
"X & & X @ * $ - 6 ; p $ * #   4 y ( A A Z F D _  .j.c.x.m.Z.D.l.c.k.k.k.h.y.x l u 1 Z I ` G 0 q 8 # # - @ O - = # $ X # # 6 6 6 ",
"* : : & * * . . # # @ $ - # 2 5 q P D A G D F ` _ | j.j.l.m.x.l.z.z.k.h.y. .z q r r 0 H H ~ V l 3 * @ @ $ @ = @ # # 2 # # $ $ s ",
"= & : X X   z 4 . # 6 @ * # X 5 t F D F ~ D D ( G ` } %.v.m.l.j.x.k.h. . .^ ^ q 9 0 0 H ` ( D q 3 2 # @ ; = $ O $ # # # # 6 - $ ",
"p & #   3 , '.xX..> # # $ 6 2 9 y D F ( ~ y 0 Z J } o.....v.v.l.v.y.| | ` V ~ V 0 0 ^ | } ] ( y q   # * $ O = = $ $ # # 6 6 * 6 ",
"= ; 2 3 . %.ZXcXt # 7 * # 2 t F r D y P ~ F 0 G ' =.=.,.<.} ..<...} | ' ' J ~ D 0 0 V ` | F ! y t 3 4 6 = @ = + - - * # 2 6 - * ",
"; -   > | mX$X< o 2 * *   , ^ ( Z S G A y y r A X.;.4.2.1.O.=.1.O.o.X.E [ J ~ ~ ^ V V G [ G F D l q z $ ; a a + $ = # # 6 * 6 6 ",
"- *   3.ZX{.G , < * * * 2 q D A G L I F F u A I -.:.L.L.L.I.2.=.O.O.O.X.[ J | ^ y r Z H I F V ! ! q z 6 $ ; a % $ - #   6 6 6 6 ",
":   5 bX{.#.Y < < e 8 , 3 q ( A F { ] I A u A L &.L.I.(.E.^.L.L.H.:.=.O.} | ` ` D V D H J G D ~ ~ V z 6 # # + f a * 2   6 6 2 3 ",
"*   ( 4X/.X.P < u b.^ 3 q 9 L F 0 F [ P A A S X.I.`.|.|.|.E.Y.Y.K.H.:.:.o.o.U K K H Z J J ' o.V V V z d d 6 % f c @ * 6 * $ 8 3 ",
"7 . ..6X~.~./.A 1 ] } D V 0 ` G 0 ` #.P P S [ 6./.OX X.X.X!.!.XX!.!.!.!.XXW.K.H.W E U o.O.].].J G ! l z k M 0.0.t.a a $ - 6 6 3 ",
"X o V.AXMXBXpX<XS i ' U V V J G 1 A P P #.Y 1.,X,X}.1X XW.W.!.wXwXwXqXqXqXwXyXtX|.J.L.^.%XuXn.J y r z q v w.t.C.d.7.9.0.s # 3 6 ",
". $.DXVXpX*XT.<X3X1.-.5.E V G S S ] #.I o.1.].mXMX}._.oX XW.K.!.wXwXqXqXqXqXwX!.K.G.E.3XAX%XJ J ) B.'.D.y.c t.d.g.p.8.k.e.s - 6 ",
"< 6XGXMXNXMX-X>.T.I.}.,X=.S H A S [ ] [ *./.uXMXNXaXP.+XrX9XqXqX&XqXfXqXfXqXwXqXwX9X;XuX4X{.xXZXJXJXHXHXbXzXy.t.g.g.8.d.t.c - d ",
"< pXBX3X`.@.P.,XL.E /.<X6.P y r G ] *.<.V.3XNXNXaX9X X.XaXaXCXaXyXyX0XqXdXaXqXdXgXyXeX+X{.DXDXAXJXZXBXZXcXHXA.C.hXp.8.d.t.0.k s ",
"o 3.<X7XT.+.T ;.4.K &./.<.F / t y ..[ 5.6XBXSXaX&X.XwX0X0X;X).E.;X=XyXsXsXaX;X.X9XeX8X;XiX1X5X<X{.@X$X#X$XlXhXZ.hXg.8.a.d.0.c d ",
"X e [.5XpX*X;.Y E U E *.[ ~ x  .$.l 3.<XmXVXNX&XU.K.Q.yXyXoXC w T.&X0XsXMXrX=.B Y.+X XQ. X}.I.~.{.'.3.b.N.N.D.S.g.r.8.p.p.q.c v ",
"e u 3.:XpX<X}.4.X.&.;.' { | l _ $.x P /.}.4.I.J.U.K.K.9XiXaXmX2XK.&X0XdXdXeX2XoX+XeX9X|.=XJ.E. X`.#.( c.c.a.C.g.g.p.8.d.p.p.w.v ",
"x $.%.#.5.].`.~.:.=.X.I *.,.#.| $.$._ ) ,.J.@.J.U.Y.J.).*XeXaXeXQ.U.sXdXXXXXyXyX8X.X9X&X1X&X@.R T 0 $.h.u.a.g.S.g.p.8.8.p.q.e.v ",
"c.%.V.:X[.5.1.1.E Y U =.5.,.6.<.%.#._ #./.oXY.@.Y.OX).P.oXMXiXtXeXK.E..X+XgXeX9X0X0X;XQ.&X.XK.@.-.%.i.a.g.S.g.hXhXd.a r.a.a.0.M ",
"b.c.B.5XMX/.,.U K Y ' 6./.4.6.=.6.1.#.,.L.OX X>.L.^.+X`.2.+XrXtXaX2XL.OXmXyXyXgXfXiX+X>.1XoX).4.} j.A.hXS.S.hXg.S.s.e k b w.e.k ",
"c.V.:XbX7X~.o.' [ ] L | 6.V.4.>.&.;.I.{.R.E.E.E.W O.L.^.Y.^.|.E.).2XmX2X%X X+X9X9X|.R.Y.uXeX|.1.b.y.jXkXkXkXkXg.x.x #.3.N.m k M ",
"@XN.3.4X*X6.' J Y F t t _ 3.6.6.;.J.+XeX-XQ.E.R.^.H.H.O.L.I.:.L.L.oXmXAXmXOX|.|.E.).J. XiX+XP.,.N.b zXkXhXkXS.k.m.6.;.4./.b.7 h ",
"@X3.3.n.[.,.S G A w , ( { 1.6.&.>.-XeX9X9XeX+X XY.^.Y.~.`.~.~.2.:.W :.L.^.^.].^.`.I.I.-X).L.;.n.$.a.nXjXS.S.s.m V.[.T.&.4.( 7 c ",
"B.b.c.3.#.l u i i P T.7X*X;X X XXX+X+X9X9X9X=XrXrX+X_.P.L.(.^.~.~.^.P.Y.^.^.|.).OXOX3X;XJ.;.6.M.D.F.jXzXhXlX$XF.B.M.b.<.l X h c ",
"N.B.N.$.u e i #.7XrX1X;X=X!.XXW.XXH.Q.U.Q.+X=X!.tXiXuX2X%X2X2XeXeX+X+X+X+X+X+X1X;X-X*X/.5.6.n.j.Z.C.Z.D.D.D.zXF.D.v j x s p b n ",
"xX>XN.3.3.#.V.vXpXrXuX;X9X+XW W J.Q Q U.H.U.eX.XrXrXeXeXiXrXtXaXiXiXCXiX9X+X1X1X3X_.4.>.3.%.$.e.p.a.p.q.c w.a.0.f b b c e.e.b n ",
"$.N.>X$X$X4XGXDXNXSXSXpXY.G.Q R W Q Q J.U.Q W. XeXrXeXiXaX0XyXdXiXeXyXiXyX9X+X-XOX4.&.3.$.h.m u.p.p.r.r.r.f.s.9.9.n 9.n n 0.0.f ",
"N < < $.xXHXDXDXDX6X5X2XH.Q Q G.Q R Q @.L.W P.+XaXaX;XtXaXsXdXCXdXiXrX9X-X.X).|.:.:.1.<. .M q.s.d.f.p.p.g.p.r.9.9.0.w.t.b n c N ",
"u 4 c.>XZXDXvXvXcX<X}.1.Q E W W T E E E W E _.|.1XiX0XrXsXdXdXdXCXgXMXuX1X,XT.:.:.;.6.{ $.e.b u.d.a.a.f.f.r.9.9.9.0.0.0.0.b c k ",
"c.u c.vXxX:X7X5.Y i K /.U C B w B K B B w o.^.|. X8XrXeXrXdXCXdXgXyXeX9XOXI.-.-.;.1.%.x b s.b e.u.a.C.S.a.7.9.9.0.9.0.0.e.b c c ",
"z.s.N.>XcX>XV.T C Y 6.{.P , 1 V 1 w w w w U Y.|.+X.XiXsXrXtXtX=X.X+X+X^.&.[ =.;.1.<... .n n b b u.C.S.i.0.w.e.b n c b 0.b b c N ",
"k.c.lXlXxXvX6X[.[.{.:X7X[.i < 1 1 1 i K J O.H.^.Q.XX.XXX=XrXrX=X=X.X5.Y Y Y :.4.,.$.$.m N g b b u.z.w.e.e. .i.v k z z d v x k v ",
"e.e.Z.$XlXxXbXvXbXvX5XpX6X[.P P ( U J K E H.L.U.G.K.XXXX9XrXaXeX(.E A L [ X.+.X.#._ N n n k b m e.b _  .$.$._ ..m.B.n.v.M... .z ",
"z.t.u.z.z.h.N.bXbXbXBXvXpXpX7XP &.+.R +.W G.J.U.Q.Q.XX0XrXuXoX=.A C P ] G [ o.X.x N s.a.m N x z z _ ..%.*.,.n.[.{.#XOXOX5.} #XM.",
"y.t.k.q.0.b N $XxX5XvXvXbXNXpX5.@.J.J.H.H.K.U.U.K.U.|..XOXL.U S A u ] #.( { | %.m g s.a.s.N.$.c.@X#.,.=.I.(.P._.OX%X].2.X.' ..^ ",
"0.f g c n b M m >X>XvXpXBXvXvX<X>.K.K.H.G.J.E.Q.E.Y.L.&.T C K #.[ L ] ] ) _ m b n s.r.p.q.M %.<.'./.o.2.(.uX^.(.%X`.2.<.~ l t 7 ",
"v k f c s.m M e c.:X4X<X5XpXVXpX XU.E.K.W.K.E.R.:.o.K K Y U -.=.,.#.#./ x m q.n 7.9.7.s.q.0._ | ' 1.=.:.:.2.`.=.*.X...) q z j d ",
"M d k c m x N %.[.4.*X&X*XpXpXpX*XK.Q.I.J.>.&.Y S I U X.o.1.2.<.<. .j k n s.n g g 9.e.w.e.v ^ ! Z D | ,.*.J U U } ` D l z 8 z j ",
"m.m.l.y.$.$.$.V.V.E >.7XW.&X*X7X7X>.&.R T C C C S [ U E U E U X.~ x M u.s.q.s.s.q.w.w.0.b  ._ _ y ! D D ~ ( G L ` F l ^ z x v M "
};
