/* XPM */
static char *_c0de48da7414a7af50b65937e6794c4PF8Mv6ibpxo6aUnB[] = {
/* columns rows colors chars-per-pixel */
"64 64 241 2 ",
"   c #17170E",
".  c #1B1A0E",
"X  c #19170E",
"o  c #171911",
"O  c #1C1C13",
"+  c #1E1E19",
"@  c #181611",
"#  c #221B0E",
"$  c #24190B",
"%  c #221D14",
"&  c #291E13",
"*  c #231E19",
"=  c #2A1F1A",
"-  c #1D2114",
";  c #1F211A",
":  c #25200D",
">  c #232116",
",  c #2A2215",
"<  c #23221B",
"1  c #2A241A",
"2  c #2C291C",
"3  c #28281A",
"4  c #322A1C",
"5  c #35271A",
"6  c #3A331D",
"7  c #2D301F",
"8  c #252621",
"9  c #2A2622",
"0  c #262923",
"q  c #2B2B24",
"w  c #2C2D29",
"e  c #332C23",
"r  c #312E29",
"t  c #2E312B",
"y  c #353324",
"u  c #3D3423",
"i  c #33332C",
"p  c #3A362C",
"a  c #3C3B2C",
"s  c #3B3927",
"d  c #353631",
"f  c #3C3C33",
"g  c #3B3E3A",
"h  c #363A34",
"j  c #2C3031",
"k  c #49351D",
"l  c #573618",
"z  c #633616",
"x  c #4B3B24",
"c  c #433B2B",
"v  c #4D3C2C",
"b  c #473625",
"n  c #543C25",
"m  c #543C2B",
"M  c #5A3D29",
"N  c #4C3E33",
"B  c #453E35",
"V  c #553E31",
"C  c #693D25",
"Z  c #713E23",
"A  c #3D412D",
"S  c #3C4333",
"D  c #3D433B",
"F  c #3E4A3C",
"G  c #394537",
"H  c #754B1B",
"J  c #4B422D",
"K  c #48442B",
"L  c #53422B",
"P  c #5A432C",
"I  c #5A4729",
"U  c #444435",
"Y  c #4B4334",
"T  c #4C4A34",
"R  c #44453A",
"E  c #4C453A",
"W  c #44493C",
"Q  c #4C4A3B",
"!  c #534333",
"~  c #5C4434",
"^  c #534A34",
"/  c #5C4C34",
"(  c #52433A",
")  c #544C3B",
"_  c #5C4D3B",
"`  c #5B4439",
"'  c #4B503D",
"]  c #53523C",
"[  c #5C533C",
"{  c #585537",
"}  c #624C2D",
"|  c #684629",
" . c #74452B",
".. c #784627",
"X. c #69512C",
"o. c #795629",
"O. c #624D3B",
"+. c #664A34",
"@. c #774733",
"#. c #63533B",
"$. c #6C5B3C",
"%. c #675738",
"&. c #735C3C",
"*. c #7A5A35",
"=. c #78623A",
"-. c #67603A",
";. c #3E4642",
":. c #424542",
">. c #434B43",
",. c #4C4C43",
"<. c #474B4B",
"1. c #554D43",
"2. c #485447",
"3. c #545244",
"4. c #5B5342",
"5. c #555449",
"6. c #494F51",
"7. c #4C5552",
"8. c #585855",
"9. c #6D5B43",
"0. c #645A42",
"q. c #755F45",
"w. c #6B5D52",
"e. c #4D695B",
"r. c #556758",
"t. c #576B55",
"y. c #6A6548",
"u. c #7B6444",
"i. c #78664A",
"p. c #7B7346",
"a. c #726D52",
"s. c #597869",
"d. c #556E62",
"f. c #627C6E",
"g. c #89511A",
"h. c #885A26",
"j. c #955C24",
"k. c #845A35",
"l. c #83482F",
"z. c #8B632A",
"x. c #986529",
"c. c #856536",
"v. c #986A38",
"b. c #98713A",
"n. c #8C713C",
"m. c #A66A27",
"M. c #A46C37",
"N. c #A37234",
"B. c #AB763C",
"V. c #AD7C3B",
"C. c #A77439",
"Z. c #B47B3A",
"A. c #B07D2E",
"S. c #856947",
"D. c #956B45",
"F. c #8A764A",
"G. c #977649",
"H. c #896E53",
"J. c #887554",
"K. c #937453",
"L. c #9B7B54",
"P. c #997957",
"I. c #A87A46",
"U. c #B47C43",
"Y. c #A37D56",
"T. c #927C62",
"R. c #6B8879",
"E. c #B5823A",
"W. c #C3843F",
"Q. c #9D8259",
"!. c #8B815D",
"~. c #BC8B4C",
"^. c #B78547",
"/. c #A4835B",
"(. c #A88759",
"). c #B68A56",
"_. c #AA935D",
"`. c #BC9258",
"'. c #AA8244",
"]. c #949275",
"[. c #A68863",
"{. c #B28E66",
"}. c #AC9366",
"|. c #BB966B",
" X c #B49C6B",
".X c #BB9B6B",
"XX c #B69666",
"oX c #B89B73",
"OX c #AC9D76",
"+X c #BCA275",
"@X c #B8A47C",
"#X c #B0A475",
"$X c #C5944B",
"%X c #C39255",
"&X c #CB9C5C",
"*X c #C79657",
"=X c #D19B5A",
"-X c #C18644",
";X c #D9A459",
":X c #CDA15D",
">X c #CB9C63",
",X c #C49A64",
"<X c #C69E75",
"1X c #C9A56A",
"2X c #D4AB6D",
"3X c #D6A669",
"4X c #C7A877",
"5X c #D3AA76",
"6X c #CCB27B",
"7X c #D7B67B",
"8X c #E3BA7C",
"9X c #E1AE6D",
"0X c #ECC079",
"qX c #769887",
"wX c #729489",
"eX c #7FA291",
"rX c #8DA58F",
"tX c #B1AB8C",
"yX c #A0AB9A",
"uX c #C9AB86",
"iX c #CEB283",
"pX c #D4B384",
"aX c #DCBB84",
"sX c #D8B987",
"dX c #D5B48E",
"fX c #E4BC86",
"gX c #E4BF97",
"hX c #D3BBA1",
"jX c #DDC18B",
"kX c #DDC496",
"lX c #E6C487",
"zX c #ECCC93",
"xX c #E7C696",
"cX c #F4D49B",
"vX c #EFCB94",
"bX c #DCCDB0",
"nX c #F7DAA5",
"mX c #EAD0B0",
"MX c #FEE4AE",
"NX c #E8D6C8",
"BX c #F9EECC",
/* pixels */
"5.<.:.f f R D R g f D :.D g g g h h D g g ;.:.;.:.:.:.R :.:.;.;.;.:.:.:.:.;.<.:.>.>.:.<.<.6.<.<.<.6.6.6.6.6.7.7.7.8.8.8.<.7.8.8.",
"3.r i t w q w 8 w w w q t w 0 q t t w j t t d d j j j w t t t t d d w w w q w j w w w w 0 0 0 8 8 0 w r j w t w w j w q r w w B ",
"1.q w q q p i i p t q w t p d i d t t d d i t w 3 8 0 0 0 w q 0 w w 8 0 8 < 0 w q q q w w 8 9 q 8 q 9 0 q q t t t w 9 9 9 9 9 d ",
"E q q q q i y < q q w y w q q w q q t q q w q 8 q 9 8 0 q 8 q 0 8 8 * * < 8 8 8 8 < < < 8 8 < 8 < 9 8 < < < 2 8 0 < 9 9 1 = q r ",
"a < i < q p q < 3 q q w t 3 < q t t t w w w q 8 8 8 0 q 8 < 8 t 8 8 < - < < < < 8 < < 8 8 < < < < 3 < 3 3 < < < < 2 < 1 1 * 1 d ",
"s e < - 2 < + - > < 3 < < + - < 0 0 w w t w q 8 < 8 8 0 0 0 8 0 < < < < < < < ; ; ; < < < < < < 8 8 ; < < ; < < ; < < 3 > > 1 g ",
"u 1 < 2 O O % . % O + + o O < < w w 0 0 0 0 8 < 8 8 q y h K T { ] Y c e < 8 < < < < < < ; < < < ; < < < < < < ; * < < < , % < d ",
"e % r < X @ @ X . O - O - O O + 8 q w 0 q q 3 < w B ] { %.%.-.$.-.%.-.0.) a 3 < < < - < - < < + ; ; ; < < < < > < % % > % & * d ",
"U q > .   O + O O O O O O o O - ; - < O 8 0 ; w U T { %.%.%.-.=.=.-.y.&.=.=.T 7 3 < < < - ; - * ; + + < + < < < ; + + > # > > r ",
"f > O O   o O O - - O o O O O O O O O O < 8 < d T T { %.=.=.S.=.c.=.=.*.=.Q.!.=.6 < > 1 = % > + < ; < * - ; ; - % + + % O > % i ",
"2 # . # X X O O < - O O o O O + . - . . < < 8 T T ' ] [ %.$.u.S.=.}.4XpX7X0XzXlX_.y > , 2 < 8 3 < > > > % * % + - + % % % # < i ",
"1 % # . . O + O - O O X o O o O - > O - < ; q W T T E T { { ) [ J.+X1X6X7X7X8XaX6X/ > 3 > > > > < > > % > > > % < % % < > O ; r ",
"2 % X . O o O O > O X O . O O O O - . . O O i U U T T ] [ #.$.p. X.X6XpXpXdXsXsXpXJ.* 8 % = * * < + * + O > > ; % O % % > O > t ",
"q > O O o O + + - O O - - < - + O O - O X - p G R E ] 0.y.y.S. X7XlXfXfXlXlXfX7XfX_.2 - > * + O + + + O O + + + O + + + . O % w ",
"< % % O @ O + - O O + ; + + ; < + + O O O - a T W U E ] 0.%.=.K./.XX4X.X(.4XaX4X)._.6 < ; ; - O + O O O O + + + O + ; * O O - r ",
"q % . O O o @ o ; O + < ; ; ; + < - O o O O y W U U E Q ] $.u.q.u.a.i.T.K.(.fX}.J.{ < > 1 * * * O O O + + < - + + ; < < + + + w ",
"q % . % . . O O * % < < + * * % < O % % % * 2 Q Q T U W 1.$.4X7XQ. X_.uX4X XkXxX6XF.% 1 > > % + + O * * % % * * O + 8 < % O * r ",
"1 % . % % O O % O % * < < < 1 > O > * % > > > f U U U T ^ $.4XxXnXzXMXMXkX@XkXxXnX4X= 9 1 > * < O % % @ O % O % + + * * O % * w ",
"9 > * % O % % O O % < + + + > > % > * % % % % 2 U F R ^ ^ %.P.4XgXnXnXnXjX6XlXzXzX X* 2 = * % + O % % @ @ O O O + O * % O % % r ",
"1 * % O O O O O O - > O + O O . % O O O O O > % y ,.R ^ ^ %.K.Y.<X5XaXzX6X/.}.sX8X=.+ > = * ; + % % . % X O @ O O O * O . % > r ",
"< + O O + + + O O O + + + o O o O O X   O O O + 7 U U Q Y %.P.Y.L.{.uXcXdXK.Q.aXpXb + > * < O O @ O O o   o o O + O O + . O + q ",
"> - . O + < ; O o o O o O O O O - O O o O O o O 7 ' ^ ^ N q.Y.L.Y.{.<XuX}.}..X6XJ.% > - < < - o O @ o o     o @ @ o o O O O O q ",
"1 O   X O O O o O O + O O O + O O o O O o O + O 2 Q 9.F.I | Y./.P.Q.oXdXoX/.XXuX4 ; > ; . * O O o @ o X       o o o @ O O % + q ",
"1 .   O O O @ O O + ; + ; ; * O O - + O - + O O q T &./.P.&.X.L.[.P.[.uXdXlXnXp.o > + O > O O O @ X             o o @ O X @ % w ",
"2 = O O O X O O . % - > < - % O * % . O % X % * 6 Q $.G.L.L.G.S.u.S.H.K.{.|.oXp % * - > O - * . @   X X     X   O @ O % % % % e ",
"% % @ O O @ O O % % % - % < % O - % % X % % . . 2 Q 4.L.K.K.Y.T.S.9.9.S.1.1.= # < 1 , : < % o @ O O o   o O X O @ O O + X # * 9 ",
"9 > % . o @ o X O O + O O O O O O O . . . O O + 3 ! ,.L.K.P.P.K.P.H.H.w.5.6X4X! # < = % % % O % O o X O o X O @ O o O @ . @ % = ",
"2 1 @ X     O X X O % O O @ O O . > $ . . < O % b ) R S.Y.K.I.Y.P.H.i.oXJ.lXMXMX[.& # 5 & > = % * O O . O X O X O O O O # & * 9 ",
"2 % % % . X X . . % > O O X . > : - O . % + 5 } S.] i.$.q.i.i.i.y.H.pX}.!.lXzXnXmXiXK X : : - : % O % . O # % O O O * % . # % 9 ",
"1 1 % O # . . . # % > : . % > . % . - 1 4 b u.D.=.5.P.K.H.S.S.K.).5XpXa.,XfXzXfXhXBXnX^ # , , > % & % % # % % % + + * % % % * r ",
"1 > % O O O . > . # > > > > . O O , 6 J K / F.D.q.y.Y.L.L.[.Y.[.|.aXOXJ.fX5X2X(.bXNXnXsX>., $ < > > # % # % % % + % % < % % * r ",
"9 < < + X O . . # % > O O # % > 6 L X.L K u.H.K.4.H.Y.K.Y.(.(./.4XfXT.P.U.M.I.U.1XsXkXiX].f.p > > > # % O O O O O O > > + + % w ",
"q % % O O * % O % ; $ % % X % 4 ) } I v L H.P.L.4./.{.}.}.|.[.{.4X4XD.D.j.U.).%X>XfXkXdX9XtXeX<.* = * * O % % O O O % O < * < i ",
"q % O O % O % % % + % % + O 2 s J } } c I H.K.H.y.{.|.oX.XXX|.).).G.I.U.-X`.,X5X*XgXtXOXvXtXyXeXr.* = < O % O O + + < O 1 * * d ",
"2 O O # O O . . O O O % O % 6 s L O.P p #.S.K.w.H.|.|.oX+XXX).(.B.D.%X{.,X3X>X5XgXgXpX5X7XpXrXrXeX8.% % % O + * + + + + < + + d ",
"1 % % % % O % % O # % > O 5 s J } } +.f 0.S.K.w.T.oX.X+X.X|.|.<XuXuXuX,X2X2XoXJ.<X,X5X9XpX5XyXrXeXqX,.$ > - % > + + + . + ; < w ",
"2 % % # * % % % # % $ % % k u T %.} P a q.L.Y.q.OX4X<XoX_./.v.x.^.%X^.$X`.`.3X.X3X%X=X5XmXdXrXqXrXwXR.4 $ > % = * % & & % % * r ",
"9 = % % % * * % > 9 % % 5 x u U T _ ) a #.i.p.a. X+X[.=...z h.B.B.Z.^.*X%X2X2X2XpXsX3XxXmXhXOXwXrXqXwX2.# , = * = % % % & % = q ",
"2 > > % O + % % O 8 O # k x p s ^ O.^ a c p y s b n ..g.g.j.j.A.N.'.`.`.`.'.`.`.4XdXmXNXNXmXtXwXR.wXwXe.3 = % < * * % % % = 9 r ",
"2 % % O O O + + O - O , n x y f c / ^ ^ P ! N k z H x.h.j.m.m.C.~.&X,X>X%XU.B.U.%X5XgXmXmXxXtXR.s.s.wXe.2 > > < * < % % O * < r ",
"9 > O . # % % * % # % b k x c a I / / Y ! n z Z g.j.x.x.V.V.~.*X2X7X2X2X:X%X^.^.3X>X>X7XaXsX].R.s.s.wXt.2 < < < * + * * % % = r ",
"1 1 = @ O # @ # $ % 5 n k b c p #./ ` v b | H z.x.z.v.C.).$X~.&X2X3X&X:X3X:X&X3XfX6X3X3X>XfX].f.e.d.s.s.r < > < < < * % % % * r ",
"1 4 1 # # # & # $ b n x k v b b q.F.K._.}.1XlXxXsX X X X/.lXlXlXfX=X$X*X^.~.:X:XfXkX&X>X5XiXt.r.t.e.2.R.p > 1 % < > > & & = * r ",
"1 4 1 & = , & & 5 x x x n m +.XXlXaXfXzXnXcXzXzXaX XD.h.h.N.).`.4XaX2X-X$X=X2X8X3XaX4X%X3XgXtXK.y.d.W s.G 2 4 1 1 2 2 * % 1 > r ",
"1 2 1 , & & 5 6 k x b x m &.1X7X7X7X7XpXjXlXzXlXzXcX7X_.`.:X*X*XZ.E.$X$X=X;X0X8X8X7X).M.%X5X2XfXtX7.;.e.>.2 4 1 , 1 , & & & = r ",
"2 5 5 , , 5 b x m x n M X./.1X6X1X4X6XsX6X7XjXzX7X1X(.Q.}.1XsXsXaXlXlX7X;X;X9X0XcX>XZ.j.^.E.E.&XxX].;.2.R 4 4 1 e 4 1 , , 1 1 i ",
"4 5 4 6 b L m b b k M X.*.K.Q. X+X1X X X+X+X4X6XlX7X1XI.b.x.j.N.G.'.`.>X%X;X9XxXsX^.Z.m.M.Z.W.-X8XuX2.2.A , 5 , 4 1 & , & = = e ",
"4 4 c ^ / / O.+.V +.| | +.=.u.H.p.=.F.P.[._. X_.J.Q.}.+X+X4XXXQ.F.v.v.C.m.m.$XfX4XC.B.C.v.*.B.$X%XsXr.F A 5 , , 1 = = 5 , = 1 p ",
"y s J P +.V ~ +.m V n | } +.$.9.^ x X.=.=.=.u.F.S.y.y.u.y.i.S.S.C.M.j.U.:X;X>XpX`.C.I.|  .Z ..5XMXBXNX2.A , 2 2 , , , , & , , p ",
"e b x x V V V m n M P +.} O.#.J I X.o.o.H H h.h.z.z.n.G.'.G.G.E.^.W.m.Z.:X1X8XjX(.v...Z | Z Z c.tXbXhX2.y 5 1 y 5 1 = & & $ > r ",
"u b b x m m m n C P I } +.O.J k } =.z.z.x.N.N.m.m.M.'.%X`.,X%X).U.B.B.Z.$X$X5XiXS.C @.Z C l.| S.' ' G F 7 , 1 , 1 , & # & & & r ",
"6 b x x b n P I ~ I ^ / +.N 6 b H o.o.H z.m.V.V.V.V.`.%X%X&X,X).(.c.x.m.-X&XkX[.z  .Z ....Z X.n.2.;.;.F , , 1 & = > & = , 5 , e ",
"k b k n n m m J ! ) K O.` b k k H o.o.g.h.j.v.E.%X*X~.^.'.~.).,X(.D.o.U.=X1XaX@. . . .l.l.C c.y.2.;.F A 6 < % 1 1 1 * 1 , 5 1 r ",
"u b k L L L T E R W ] / J 6 k l l o.o.o.h.z.x.N.N.^.).^.U.C.M.I.D.v.c.x.C.&X5Xl. .@...@.+.+.n.t.2.F F a 3 > 1 1 > 1 1 1 , 4 1 y ",
"u v v Y Y Y E W g R ) J B x k I I X.} H h.h.v.C.N.N.C.^.I.I.k.o.o. .o.I.^.3X4X ...@.l.h.I c.=.2.F F F 7 1 1 > 1 1 * * 1 = 1 > r ",
"s Y U W >.W W R R ^ c U ) ) K K L } I } o.z.c.z.v.b.b.n.c.k.o.X.I M %.v.~.,X|.D.@.@.@. .%.c.E ;.;.>.G : > > > 1 = * * = 1 1 % r ",
"K K T K p f g f E a p Y ^ _ [ ) ! ^ v x L } X.X.*.*.*.| I m Y ! b B Q #.I.^.A.xXhX..l.+.o.$.;.F S F t O + % > > < 8 1 < 2 < % q ",
"K x T s y U f f U c Y _ _ #.#.0.#._ L J J Y Y ! / I v m m Y v m v T G h S.sXxXBXbX@.| P %.2.6.G G g ; 8 ; O < ; + < 9 9 1 < > q ",
"s K T a U E p W Q ) _ O.O._ #.9.$./ ! ` v N N V ! m N +.N m M C N S Y y.4.9.0.9.~ | T U >.;.>.G W q + < + * * * < * * * = * * r ",
"p K U f U T U R E ) #.O._ O.#.#._ ! ! V v N V m V m | @.V V V C B ! B p./ a V p.{ #.) F f D G S W 0 * < % % % * + * * * * = 9 d ",
"U K a h G U W U U ) O.O._ _ #.#.4.( N N ( N ( N ( ` V @.` ` Y C m O.D { 3.T a.a.' -.t.F G U W W G 0 3 ; + < + ; - ; < < < > < d ",
"U s a A T U U W Q ) ] 4.4.1.1.4.] ( E Q ( N 1.,.N 1.N 1.` ` ` O.%.) G ] R p.y.T 3.p.-.G G G ' G p 8 w 8 q < 3 8 8 8 q 9 q r 9 d ",
",.s A S U A U W Q Q W 3.3.3.) ,.E U E Y ( E N V B N N N ` ~ ~ ` 4.+.Q y.{ { ' ' p.p.-.s S G :.S p R D W R f R U U ,.,.B B E B f ",
"8.1.Q R Q T ) ] ' Q R T Q 3.3.5.7.5.<.<.<.<.Q ,.1.E 1.( ! ! T ( Q ` >.{ ' 3.5.' y.y.4.h G D ;.>.g d d d d d p i i d d d i p i g "
};
